<?xml version="1.0" standalone="no"?>
<!DOCTYPE svg PUBLIC "-//W3C//DTD SVG 20010904//EN"
 "http://www.w3.org/TR/2001/REC-SVG-20010904/DTD/svg10.dtd">
<svg version="1.0" xmlns="http://www.w3.org/2000/svg"
 width="624.000000pt" height="624.000000pt" viewBox="0 0 624.000000 624.000000"
 preserveAspectRatio="xMidYMid meet">
<metadata>
Created by potrace 1.14, written by Peter Selinger 2001-2017
</metadata>
<g transform="translate(0.000000,624.000000) scale(0.100000,-0.100000)"
fill="#000000" stroke="none">
<path d="M2930 6220 c-153 -32 -217 -62 -488 -223 -26 -15 -78 -46 -117 -68
-38 -22 -83 -48 -100 -58 -26 -16 -275 -162 -360 -211 -277 -161 -403 -235
-416 -246 -8 -8 -23 -14 -31 -14 -9 0 -18 -4 -20 -8 -3 -7 -66 -45 -198 -120
-25 -14 -73 -43 -108 -64 -34 -21 -65 -38 -69 -38 -3 0 -14 -6 -22 -14 -9 -8
-36 -25 -61 -39 -208 -113 -300 -184 -401 -312 -62 -78 -119 -168 -119 -188 0
-7 -4 -17 -9 -22 -20 -21 -54 -129 -76 -245 -21 -111 -21 -2359 1 -2470 48
-253 191 -483 394 -632 25 -18 47 -33 50 -33 3 0 16 -8 30 -17 61 -40 353
-208 361 -208 5 0 9 -4 9 -10 0 -5 4 -10 9 -10 5 0 125 -68 267 -151 143 -84
274 -160 292 -171 19 -10 192 -111 385 -224 194 -114 393 -230 443 -260 202
-118 338 -159 529 -161 227 -3 355 39 653 216 57 33 108 61 113 61 5 0 9 5 9
10 0 6 4 10 9 10 5 0 94 50 198 111 103 61 204 120 223 130 19 11 53 31 75 44
22 14 59 35 83 47 23 12 42 26 42 30 0 4 4 8 9 8 6 0 61 30 123 66 62 37 131
77 153 89 22 13 157 92 300 175 143 84 276 162 295 172 86 49 172 114 234 176
63 64 147 172 167 217 5 11 13 27 18 35 26 46 41 82 61 145 49 161 49 142 49
1251 l1 1040 -27 54 c-30 60 -59 90 -114 120 -72 38 -121 40 -359 10 -41 -5
-97 -12 -125 -16 -27 -3 -93 -15 -145 -26 -52 -11 -107 -22 -122 -24 -33 -6
-304 -84 -546 -157 -101 -31 -191 -57 -201 -59 -11 -2 -36 17 -65 49 -45 50
-177 163 -189 163 -3 0 -26 14 -51 31 -25 16 -80 46 -123 66 -81 37 -243 95
-243 87 0 -3 -8 0 -18 5 -18 10 -63 21 -89 23 -31 3 6 35 41 36 5 0 12 4 15 9
3 4 47 28 96 53 50 25 119 61 155 81 92 51 189 103 310 167 277 145 364 193
368 204 2 4 8 8 14 8 22 0 136 90 199 158 78 82 87 110 65 209 -23 106 -143
228 -331 338 -71 42 -137 80 -145 86 -82 50 -274 159 -281 159 -5 0 -9 5 -9
10 0 6 -5 10 -12 10 -10 0 -36 15 -138 79 -14 8 -28 16 -32 16 -4 0 -13 6 -19
13 -7 6 -19 12 -26 12 -7 0 -13 4 -13 8 0 4 -12 13 -27 20 -16 6 -46 23 -68
37 -22 14 -47 28 -55 32 -8 3 -23 13 -32 21 -10 8 -18 12 -18 8 0 -3 -10 0
-22 8 -30 19 -126 52 -208 72 -99 25 -297 27 -400 4z m348 -464 c49 -18 115
-47 122 -55 5 -6 20 -15 99 -59 25 -13 58 -33 72 -43 15 -10 37 -23 50 -29 30
-14 63 -33 80 -47 8 -6 38 -24 67 -39 29 -16 68 -38 86 -49 19 -11 80 -47 136
-79 157 -91 153 -84 83 -132 -91 -64 -264 -162 -588 -334 -44 -23 -102 -55
-130 -70 -27 -15 -90 -49 -140 -75 -201 -106 -497 -293 -579 -364 -106 -94
-157 -167 -162 -231 -4 -67 59 -119 194 -159 70 -21 222 -54 297 -65 222 -32
411 -78 489 -119 23 -11 43 -21 46 -22 3 0 16 -8 29 -17 l24 -17 -29 -6 c-16
-4 -40 -11 -54 -16 -14 -4 -36 -11 -50 -13 -32 -7 -156 -41 -240 -66 -36 -11
-74 -22 -85 -25 -11 -2 -33 -8 -50 -14 -16 -6 -102 -33 -190 -62 -88 -28 -169
-54 -180 -59 -11 -4 -38 -15 -60 -23 -219 -85 -269 -106 -410 -177 -226 -114
-378 -237 -448 -362 -54 -97 -69 -196 -51 -323 9 -56 8 -52 18 -80 58 -157
179 -293 336 -378 65 -36 189 -82 245 -91 17 -2 48 -8 70 -11 83 -15 301 -9
412 11 90 16 219 54 323 96 97 39 314 147 318 159 2 5 8 9 13 9 19 0 195 124
309 217 76 62 263 255 310 318 24 33 47 62 52 63 4 2 8 8 8 12 0 5 14 29 30
54 36 52 141 268 135 275 -3 2 -1 9 4 15 8 10 24 62 50 162 8 30 17 43 34 47
12 3 67 20 122 37 55 18 114 36 130 40 17 5 55 16 85 25 121 36 380 102 515
131 50 11 63 13 115 24 62 13 97 20 114 23 8 1 11 -237 11 -893 0 -984 3 -935
-63 -1063 -59 -115 -143 -186 -362 -309 -25 -14 -74 -43 -110 -64 -36 -21 -81
-48 -101 -59 -29 -16 -362 -212 -427 -250 -9 -6 -52 -31 -95 -55 -43 -25 -93
-54 -111 -65 -61 -36 -151 -87 -173 -99 -13 -6 -23 -14 -23 -18 0 -5 -4 -8
-10 -8 -8 0 -188 -103 -375 -215 -38 -23 -77 -45 -85 -48 -8 -4 -28 -16 -45
-27 -16 -11 -37 -23 -45 -27 -8 -3 -27 -15 -42 -25 -49 -34 -159 -69 -237 -75
-94 -7 -176 8 -258 47 -59 27 -111 57 -432 247 -68 40 -127 73 -131 73 -4 0
-13 7 -20 15 -7 8 -16 13 -20 10 -5 -3 -11 -1 -14 4 -5 8 -104 68 -191 117
-11 6 -87 50 -170 99 -82 48 -165 96 -183 107 -18 10 -43 25 -55 32 -49 31
-113 67 -129 73 -10 3 -18 9 -18 14 0 5 -4 9 -9 9 -18 0 -528 304 -573 342
-62 52 -130 156 -159 243 l-23 70 -1 1135 c-1 624 2 1153 7 1175 17 81 20 90
44 139 35 70 86 137 135 177 22 19 170 109 327 201 158 92 305 178 327 192 22
13 56 33 75 44 19 11 114 66 210 122 457 269 702 410 711 410 5 0 9 3 9 8 0 4
17 16 38 27 20 11 53 29 72 41 19 11 40 22 45 23 6 1 17 8 25 16 35 31 162 85
230 99 47 9 205 -2 248 -18z m332 -2507 c0 -27 -33 -135 -57 -187 -110 -236
-384 -463 -686 -566 -89 -31 -139 -40 -220 -39 -54 0 -136 24 -165 47 -96 79
-126 170 -83 254 20 39 67 87 113 115 79 49 265 138 318 153 8 2 94 31 190 63
96 33 243 78 325 101 83 23 170 48 195 55 57 17 70 18 70 4z"/>
</g>
</svg>
