<svg width="96" height="27" viewBox="0 0 96 27" fill="none" xmlns="http://www.w3.org/2000/svg"><path fill-rule="evenodd" clip-rule="evenodd" d="M3.705 11.87c.24-.245.49-.487.754-.726.27-.245.55-.462.84-.65.295-.195.603-.352.924-.472a2.867 2.867 0 0 1 1.65-.104c.22.044.417.12.593.227.183.107.33.245.444.414.113.17.17.378.17.623 0 .402-.095.766-.284 1.093-.182.327-.42.62-.716.877a5.653 5.653 0 0 1-.99.688 9.94 9.94 0 0 1-1.056.5.99.99 0 0 0-.245.151 1.13 1.13 0 0 0-.198.189.94.94 0 0 0-.123.197.374.374 0 0 0-.047.16c0 .076.022.142.066.199.05.05.135.075.255.075.232 0 .496-.047.792-.141a8.004 8.004 0 0 0 1.027-.425c.396-.194.846-.44 1.349-.735.526-.306.932-.493 1.232-.589.08-.174.162-.342.248-.505.215-.42.41-.85.605-1.282.148-.325.295-.65.45-.97.296-.488.953-.674 1.405-.255.257.22.347.622.18.924-.205.38-.391.77-.577 1.159-.114.24-.229.48-.347.717-.191.369-.36.746-.49 1.14-.065.216-.199.695.037.858.266.152.65.069.915-.037.39-.151.782-.396 1.16-.698.345-.288.678-.598.99-.924.533-.533.824-1.122 1.155-1.793l.013-.027c-.3-.257-.427-.717-.216-1.074.125-.226.345-.362.622-.425a2.16 2.16 0 0 1 .942-.009l.152.023c1.054.164 1.716.266 2.856.005.226-.056.427-.084.604-.084.282 0 .5.069.65.207.157.132.236.358.236.679 0 .069-.003.144-.01.226a1.962 1.962 0 0 1-.037.245c-.032.163-.126.355-.283.575-.157.22-.343.45-.556.688-.208.24-.434.481-.68.726l-.669.67c-.2.201-.37.377-.509.528-.063.072-.356.443-.104.443.34-.145.717-.317 1.132-.519a77.666 77.666 0 0 0 2.432-1.254l.439-.246c.28-.724.565-1.453.89-2.158l2.754-6.119c.177-.383.639-.631 1.056-.631.916 0 .82.838.48 1.405-.474.91-.909 1.84-1.343 2.77-.42.899-.84 1.798-1.297 2.679.917-.716 2.305-1.586 3.517-1.131.821.308 1.221 1.144 1.056 1.97-.138.691-.378 1.426-.773 2.018.285.448 1.34.067 1.886-.157l.122-.249c.47-.91.867-1.858 1.245-2.81.125-.244.289-.42.49-.527a1.19 1.19 0 0 1 .584-.17c.195 0 .359.047.49.142a.406.406 0 0 1 .208.358.484.484 0 0 1-.038.198c-.022.047-.072.147-.14.284-.49.977-1.943 3.883-1.604 3.883.203 0 .416-.2.557-.331l.009-.008 3.894-3.828.033-.026c.274-.216.608-.48.966-.512l.022-.002c.176-.014.388-.033.487.144.099.164.111.37.038.547l-2.112 4.402c.992-.744 2.57-.896 3.79-.767.148-.144.321-.303.519-.477.32-.283.729-.625 1.225-1.028l2.008-1.48c-.044 0-.386.01-1.027.028-.641.02-1.537.029-2.687.029-.415 0-.513-.345-.415-.698.077-.232.205-.43.377-.566.194-.142.476-.126.727-.111.072.004.142.008.206.008 1.511-.034 3.024-.038 4.535-.038.25 0 .464.135.51.386.105.53-.32.968-.689 1.283-.472.384-.965.741-1.459 1.099-.269.194-.538.39-.803.588-.422.308-.883.648-1.386 1.018.451 0 .896.03 1.329.17.352.113.647.267.886.462a47.904 47.904 0 0 0 1.462-.839 26.72 26.72 0 0 0 1.206-.754c.288-.193.552-.38.797-.562l.042-.098c.17-.377.38-.748.632-1.113.258-.37.563-.7.915-.99a4.266 4.266 0 0 1 1.206-.707 4.004 4.004 0 0 1 1.509-.273c.239 0 .493.031.764.094.276.063.53.17.763.32.233.152.425.353.575.604.158.245.236.55.236.915 0 .188-.025.405-.075.65-.05.24-.126.49-.227.755a.59.59 0 0 0 .481.207c.132 0 .277-.038.434-.113.967-.447 2.01-1.335 2.451-2.3.187-.401.55-.802 1.028-.802.15 0 .286.056.405.17.286.255.193.737.047 1.046.139-.176.337-.355.594-.537a5.797 5.797 0 0 1 1.81-.868c.559-.158 1.273-.267 1.773.104.466.324.369 1.046.236 1.518a6.449 6.449 0 0 1-.641 1.461c-.154.272-.323.534-.49.797-.183.284-.365.568-.529.863-.094.116-.187.346-.075.48.427.513 2.215-.886 2.603-1.14.055-.59.305-1.16.612-1.66a5.732 5.732 0 0 1 1.725-1.782 4.755 4.755 0 0 1 2.603-.792c.521 0 .91.126 1.169.378.501.489.46 1.287.179 1.876-.399.834-1.308 1.374-2.084 1.8-.566.308-1.276.62-2.13.934.077.449.545.585.942.585 1 0 1.973-.445 2.857-.877.492-.251.981-.512 1.452-.802.138-.081.325-.23.49-.254.176-.022.344.01.443.17.183.213.094.557-.066.754-.554.554-1.32.964-1.999 1.348-.37.207-.766.399-1.188.575-1.366.58-3.28 1.126-4.393-.189a2.604 2.604 0 0 1-.424-.742 10.12 10.12 0 0 1-2.913 1.393c-.482.148-1.18.315-1.556-.123-.543-.679-.061-1.752.273-2.404.132-.245.27-.487.415-.726.294-.498.547-.939.707-1.272.092-.191.204-.467.038-.651-.265-.364-1.132.088-1.386.255-1.055.703-1.77 1.8-2.452 2.849l-.005.008-.117.178c-.147.242-.266.498-.385.753-.09.194-.181.388-.284.577-.196.347-.482.707-.915.707-.41 0-.707-.308-.707-.717 0-.353.187-.745.351-1.09.043-.09.085-.176.12-.258.094-.213.195-.436.303-.669l-.01.01a4.11 4.11 0 0 1-.688.48 1.5 1.5 0 0 1-1.198.123 1.74 1.74 0 0 1-.462-.246 5.76 5.76 0 0 1-.773.962c-.29.29-.613.537-.971.745a4.677 4.677 0 0 1-1.15.48 4.65 4.65 0 0 1-1.31.18c-.177 0-.381-.035-.614-.104a2.174 2.174 0 0 1-.669-.34 2.096 2.096 0 0 1-.528-.631c-.145-.258-.217-.572-.217-.943 0-.073.004-.15.01-.231-.26.172-.543.353-.849.542-.496.308-1.065.65-1.706 1.028 0 .822-.23 1.547-.68 2.234-.743 1.172-2.06 2.414-3.516 2.414-.704 0-1.527-.226-1.867-.905-.421-.815.21-1.555.802-2.055.94-.778 2.04-1.36 3.12-1.914a1.027 1.027 0 0 0-.339-.076 9.37 9.37 0 0 0-.83 0c-.438.015-.98 0-1.329-.01-.75-.02-1.873.086-2.847.651a8.87 8.87 0 0 0-1.603 1.207c-.375.979-.757 1.967-1.226 2.904-.322.668-1.42 2.27-2.29 1.33-.562-.585-.099-1.732.207-2.32.468-.867 1.085-1.645 1.697-2.413l1.885-3.819c-.942 1.119-1.797 1.974-2.564 2.565-.625.482-1.884 1.277-2.696.735-.422-.264-.185-1.006-.064-1.368-.672.174-1.57.319-2.124-.207-1.05 1.26-2.944 2.406-4.62 1.688-.874-.354-1.152-1.272-1.094-2.158l-.782.49c-.295.182-.597.36-.905.537-.302.176-.594.333-.877.471l-.011.006-.034.016c-.706.342-1.716.753-2.378.129-.49-.475-.32-1.168-.066-1.716.12-.258.255-.503.406-.735.133-.206.318-.42.51-.64.422-.486.876-1.007.876-1.566 0-.227-.264-.134-.423-.077l-.058.02c-.39.13-.768.317-1.103.556-2.253 2.942-2.932 3.328-4.215 4.017a8.542 8.542 0 0 1-.952.414l-.17.066a2.892 2.892 0 0 1-1.065.208c-.509 0-.911-.129-1.207-.387-.289-.264-.433-.672-.433-1.225 0-.072.002-.143.007-.213-.127.096-.262.19-.403.279-.44.276-.893.53-1.358.763a9.255 9.255 0 0 1-1.433.557c-.49.15-.993.226-1.509.226-.892 0-1.338-.387-1.338-1.16 0-.408.085-.767.254-1.075.176-.314.387-.587.632-.82.251-.232.512-.43.782-.594.27-.17.503-.32.698-.452.151-.088.292-.183.424-.283.132-.1.249-.204.35-.311.106-.107.188-.214.244-.32a.693.693 0 0 0 .095-.34c0-.183-.085-.274-.255-.274-.628 0-1.508.607-2.64 1.82a15.46 15.46 0 0 0-.707.81c-.214.258-.415.513-.603.764-.183.252-.359.497-.528.736-.17.232-.337.456-.5.67-.49.552-.927.829-1.31.829-.183 0-.315-.035-.396-.104C.04 16.766 0 16.644 0 16.461v-.075a2.658 2.658 0 0 1 .17-.66c.094-.258.21-.55.349-.877.144-.327.301-.675.47-1.046.177-.371.35-.733.52-1.085.17-.358.33-.69.48-.999l.377-.782 2.98-6.082a.825.825 0 0 1 .17-.235c.081-.076.17-.142.263-.198.101-.063.205-.11.312-.142.113-.037.226-.056.339-.056.283 0 .478.053.584.16.114.107.17.236.17.387 0 .138-.034.282-.104.433-.062.151-.138.293-.226.425a33.09 33.09 0 0 0-.792 1.508c-.257.528-.515 1.065-.773 1.612a97.233 97.233 0 0 1-.782 1.622 29.929 29.929 0 0 1-.802 1.499Zm23.721-.462c-.358 0-.716.088-1.074.264a3.558 3.558 0 0 0-1.67 1.64c-.182.352-.273.71-.273 1.075 0 .1.01.204.029.311.018.1.056.195.113.283.063.088.15.16.264.217.113.057.264.085.452.085.365 0 .717-.085 1.056-.255a3.508 3.508 0 0 0 1.575-1.64c.163-.358.245-.717.245-1.075 0-.094-.01-.195-.029-.302a.762.762 0 0 0-.094-.292.597.597 0 0 0-.217-.217.67.67 0 0 0-.377-.094Zm13.869 8.127a3.43 3.43 0 0 0 1.216-1.273c.187-.314.291-.698.245-1.065a26.1 26.1 0 0 0-1.178.64c-.673.4-1.151.743-1.405 1.01-.2.23-.253.51 0 .735.326.294.793.158 1.122-.047Zm9.136-7.806a1.77 1.77 0 0 1 .858-.227c.194 0 .349.038.462.113.113.07.198.16.254.274.063.113.1.239.113.377a2.545 2.545 0 0 1-.16 1.339 3.047 3.047 0 0 1-.509.848 2.815 2.815 0 0 1-.735.604 1.7 1.7 0 0 1-.84.226.757.757 0 0 1-.452-.123.865.865 0 0 1-.264-.301 1.432 1.432 0 0 1-.113-.396 3.094 3.094 0 0 1-.029-.396c0-.32.063-.632.19-.934.125-.308.291-.581.499-.82.214-.245.456-.44.726-.585Zm18.111-.594a.343.343 0 0 1 .292.33c0 .405-.445.709-.745.895-.522.314-1.015.675-1.536.99a9.636 9.636 0 0 1-.68.387c.244-.77.646-1.552 1.255-2.093.351-.314.925-.607 1.414-.51Z" fill="#F9E79F"/><path d="M12.483 8.542c0-.145.025-.292.075-.443a1.3 1.3 0 0 1 .641-.735c.164-.082.355-.123.575-.123.365 0 .62.072.764.217a.7.7 0 0 1 .217.528c0 .119-.025.251-.075.396-.044.144-.114.28-.208.405a1.113 1.113 0 0 1-.905.424c-.39 0-.663-.06-.82-.179a.685.685 0 0 1-.264-.49Z" fill="#F9E79F"/><path fill-rule="evenodd" clip-rule="evenodd" d="M95.638 9.59v8.214c0 1.512-.806 2.91-2.116 3.665l-7.835 4.524a4.233 4.233 0 0 1-4.233 0l-7.835-4.524a4.233 4.233 0 0 1-2.117-3.665V8.756c0-1.512.807-2.91 2.117-3.665L81.454.567a4.233 4.233 0 0 1 4.233 0l3.917 2.262c.611.353 1.628 1.478.804 2.094-.43.525-1.181.909-2.617 1.643-.9.46-1.768.984-2.696 1.389.742.17 1.462.386 2.122.778.536.318.964.682 1.284 1.092.55-.159 1.013-.297 1.42-.42 1.74-.518 2.46-.734 4.482-.9.63-.052 1.235.444 1.235 1.085ZM82.431 2.259a2.28 2.28 0 0 1 2.279 0l3.24 1.87a5.472 5.472 0 0 1-.448.32C85.68 5.552 83.7 6.387 81.936 7.577c-.356.24-1.53 1.098-1.042 1.637.242.233.615.335.935.423 1.12.307 2.651.28 3.61.957-1.328.338-2.474.67-3.44.992-.967.334-1.77.662-2.409.984-.815.422-1.868 1.043-2.09 2.017a2.293 2.293 0 0 0 .488 2.004c1.354 1.672 3.84 1.525 5.628.778a10.237 10.237 0 0 0 3.302-2.182c.996-.96 1.646-2.069 1.954-3.418 2.36-.75 3.276-.93 4.813-1.243v7.278a2.28 2.28 0 0 1-1.14 1.974L84.71 24.3a2.28 2.28 0 0 1-2.28 0l-7.834-4.523a2.28 2.28 0 0 1-1.14-1.974V8.756a2.28 2.28 0 0 1 1.14-1.973l7.835-4.524Zm1.073 11.024c.644-.2 1.37-.405 2.178-.612-.16 1.604-1.868 2.84-3.28 3.296-.617.213-1.436.262-1.862-.343-.33-.467-.138-.905.276-1.21.787-.52 1.728-.823 2.621-1.11l.067-.02Z" fill="#F9E79F"/></svg>