<svg width="70" height="78" viewBox="0 0 70 78" fill="none" xmlns="http://www.w3.org/2000/svg"><path fill-rule="evenodd" clip-rule="evenodd" d="M70 28.163v24.122c0 4.44-2.34 8.544-6.138 10.765L41.138 76.335a12.144 12.144 0 0 1-12.276 0L6.138 63.05C2.34 60.83 0 56.726 0 52.285v-26.57c0-4.44 2.34-8.544 6.138-10.765L28.862 1.665a12.144 12.144 0 0 1 12.276 0L52.5 8.308c1.772 1.035 4.722 4.34 2.33 6.15-1.248 1.54-3.426 2.668-7.589 4.823-2.611 1.353-5.127 2.892-7.82 4.08 2.154.498 4.24 1.135 6.155 2.285 1.555.934 2.796 2.003 3.723 3.206a428.4 428.4 0 0 0 4.122-1.23c5.043-1.525 7.132-2.156 12.996-2.646C68.245 24.823 70 26.279 70 28.163ZM31.695 6.634a6.54 6.54 0 0 1 6.61 0l9.396 5.493c-.387.31-.817.626-1.3.94-5.28 3.236-11.024 5.69-16.14 9.184-1.034.707-4.439 3.226-3.023 4.809.702.682 1.783.983 2.712 1.241 3.248.903 7.689.822 10.469 2.81-3.85.994-7.175 1.966-9.974 2.915-2.807.98-5.136 1.943-6.988 2.888-2.364 1.24-5.42 3.063-6.065 5.925a6.795 6.795 0 0 0 1.418 5.883c3.926 4.911 11.138 4.48 16.321 2.286a29.659 29.659 0 0 0 9.578-6.407c2.888-2.82 4.775-6.076 5.668-10.04 6.845-2.2 9.5-2.727 13.957-3.648v21.372a6.71 6.71 0 0 1-3.305 5.796L38.305 71.366a6.539 6.539 0 0 1-6.61 0L8.97 58.081a6.71 6.71 0 0 1-3.305-5.796v-26.57A6.71 6.71 0 0 1 8.97 19.92L31.695 6.634Zm3.113 32.375a126.26 126.26 0 0 1 6.317-1.797c-.467 4.708-5.417 8.341-9.512 9.68-1.792.625-4.165.768-5.4-1.009-.96-1.37-.402-2.656.8-3.55 2.281-1.532 5.011-2.42 7.601-3.26l.194-.064Z" fill="#F9E79F"/></svg>