<svg width="96" height="27" viewBox="0 0 96 27" fill="none" xmlns="http://www.w3.org/2000/svg">
<path fill-rule="evenodd" clip-rule="evenodd" d="M3.70523 11.87C3.94408 11.6248 4.19549 11.3828 4.45948 11.144C4.72975 10.8989 5.00945 10.682 5.29858 10.4935C5.59399 10.2986 5.90197 10.1415 6.22253 10.022C6.54308 9.90263 6.87935 9.84292 7.23133 9.84292C7.43875 9.84292 7.65245 9.86806 7.87244 9.91834C8.09243 9.96234 8.29042 10.0378 8.46641 10.1446C8.64868 10.2515 8.79639 10.3897 8.90953 10.5594C9.02266 10.7292 9.07923 10.9366 9.07923 11.1817C9.07923 11.584 8.98495 11.9485 8.79639 12.2754C8.61411 12.6022 8.37527 12.8945 8.07986 13.1522C7.78444 13.4099 7.45446 13.6393 7.08991 13.8404C6.73164 14.0353 6.37966 14.2018 6.03396 14.3401C5.94597 14.3778 5.86426 14.4281 5.78883 14.491C5.71341 14.5475 5.64741 14.6104 5.59085 14.6795C5.54056 14.7424 5.49971 14.8084 5.46828 14.8775C5.43685 14.9404 5.42114 14.9938 5.42114 15.0378C5.42114 15.1132 5.44314 15.1792 5.48714 15.2358C5.53742 15.2861 5.62227 15.3112 5.74169 15.3112C5.97425 15.3112 6.23824 15.2641 6.53365 15.1698C6.82907 15.0755 7.17162 14.9341 7.56131 14.7455C7.95729 14.5507 8.4067 14.3055 8.90953 14.0101C9.43626 13.7045 9.84172 13.5168 10.142 13.4211C10.2217 13.2471 10.3043 13.0789 10.3897 12.9165C10.6051 12.4965 10.8002 12.0655 10.9952 11.6344C11.1425 11.3091 11.2897 10.9838 11.4457 10.6632C11.7412 10.1763 12.3979 9.98954 12.8505 10.4086C13.1069 10.6284 13.1974 11.0306 13.0296 11.3326C12.8249 11.7127 12.639 12.1023 12.4531 12.4918C12.3388 12.7315 12.2244 12.9712 12.1056 13.2087C11.9147 13.5778 11.7469 13.955 11.6154 14.3495C11.5506 14.5654 11.417 15.044 11.6531 15.2075C11.919 15.3594 12.3028 15.2757 12.5676 15.1698C12.9573 15.0189 13.3501 14.7738 13.7273 14.4721C14.0734 14.1836 14.4057 13.8738 14.7172 13.5481C15.2507 13.0146 15.5416 12.4261 15.8733 11.7549L15.8863 11.7285C15.5854 11.4706 15.4593 11.0111 15.6695 10.6537C15.7952 10.4275 16.0152 10.2923 16.2917 10.2295C16.5866 10.1525 16.914 10.1584 17.2345 10.22L17.3856 10.2434C18.4404 10.4066 19.1019 10.5089 20.2421 10.2483C20.4684 10.1918 20.6695 10.1635 20.8455 10.1635C21.1283 10.1635 21.3452 10.2326 21.496 10.3709C21.6531 10.5029 21.7317 10.7292 21.7317 11.0497C21.7317 11.1188 21.7286 11.1943 21.7223 11.276C21.716 11.3514 21.7034 11.4331 21.6846 11.5211C21.6531 11.6845 21.5589 11.8762 21.4017 12.0962C21.2446 12.3162 21.0592 12.5456 20.8455 12.7845C20.6381 13.0233 20.4118 13.2653 20.1667 13.5104L19.4973 14.1798C19.2961 14.381 19.1264 14.557 18.9881 14.7078C18.9252 14.7797 18.6319 15.1509 18.8844 15.1509C19.2238 15.0064 19.601 14.8335 20.0158 14.6324C20.4369 14.425 20.8549 14.2144 21.2697 14.0007C21.6846 13.787 22.0774 13.5796 22.4482 13.3784C22.6044 13.2911 22.7505 13.2088 22.8865 13.1315C23.1663 12.4078 23.4524 11.6788 23.7776 10.9743L26.5306 4.85547C26.7075 4.47217 27.17 4.22379 27.5865 4.22379C28.5032 4.22379 28.407 5.06243 28.0674 5.62857C27.5927 6.53943 27.1581 7.46937 26.7235 8.39933C26.3036 9.29792 25.8836 10.1965 25.4275 11.078C26.3438 10.3621 27.7316 9.49191 28.9442 9.94662C29.7653 10.2545 30.1654 11.0908 30.0001 11.9171C29.8619 12.6081 29.6217 13.3427 29.227 13.9347C29.5124 14.3832 30.5679 14.0017 31.1132 13.7778C31.1533 13.6971 31.194 13.6142 31.2352 13.5293C31.7042 12.6189 32.1018 11.671 32.4797 10.7197C32.6054 10.4746 32.7688 10.2986 32.97 10.1918C33.1711 10.0786 33.3659 10.022 33.5545 10.022C33.7493 10.022 33.9128 10.0692 34.0448 10.1635C34.183 10.2515 34.2522 10.3709 34.2522 10.5217C34.2522 10.5972 34.2396 10.6632 34.2145 10.7197C34.1916 10.7673 34.1419 10.8667 34.0731 11.0043C33.5843 11.9814 32.1309 14.8869 32.4703 14.8869C32.6726 14.8869 32.8865 14.6871 33.027 14.5559L33.036 14.5475L36.9297 10.7197L36.9629 10.6936C37.2373 10.4776 37.5711 10.2149 37.9291 10.1823L37.9513 10.1804C38.1269 10.1655 38.339 10.1474 38.4382 10.3237C38.5367 10.4879 38.5495 10.6941 38.476 10.8706L36.3641 15.2735C37.3561 14.5294 38.9342 14.3774 40.1542 14.5062C40.3021 14.362 40.475 14.203 40.6727 14.029C40.9932 13.7461 41.4018 13.4036 41.8983 13.0013L43.9065 11.5211C43.8625 11.5211 43.52 11.5305 42.8789 11.5494C42.2378 11.5683 41.3421 11.5777 40.1919 11.5777C39.7767 11.5777 39.6791 11.2325 39.777 10.88C39.8542 10.6485 39.9821 10.4495 40.1541 10.3143C40.3478 10.1723 40.6296 10.1883 40.8809 10.2026C40.9532 10.2067 41.0231 10.2106 41.0875 10.2106C42.5984 10.177 44.1113 10.1729 45.6224 10.1729C45.8719 10.1729 46.0858 10.3079 46.1315 10.5594C46.2373 11.0884 45.8122 11.5274 45.4433 11.8417C44.9713 12.2263 44.4778 12.5834 43.9844 12.9406L43.9841 12.9408C43.7151 13.1355 43.4461 13.3302 43.1806 13.5293C42.7594 13.8373 42.2975 14.1767 41.7946 14.5475C42.2462 14.5475 42.6906 14.5779 43.124 14.7172C43.476 14.8304 43.7714 14.9844 44.0102 15.1792C44.5445 14.8838 45.0316 14.6041 45.4716 14.3401C45.9178 14.0761 46.3201 13.8247 46.6784 13.5859C46.9656 13.3927 47.23 13.2064 47.4749 13.0245C47.4887 12.9917 47.5029 12.9588 47.5175 12.9259C47.6872 12.5488 47.8977 12.1779 48.1492 11.8134C48.4069 11.4425 48.7117 11.1126 49.0637 10.8234C49.4157 10.528 49.8179 10.2923 50.2705 10.1163C50.723 9.93405 51.2258 9.84292 51.779 9.84292C52.0178 9.84292 52.2724 9.87434 52.5426 9.9372C52.8192 10.0001 53.0737 10.1069 53.3063 10.2578C53.5389 10.4086 53.7306 10.6097 53.8814 10.8611C54.0386 11.1063 54.1171 11.4111 54.1171 11.7757C54.1171 11.9642 54.092 12.1811 54.0417 12.4262C53.9914 12.6651 53.916 12.9165 53.8154 13.1805C53.9411 13.3313 54.1077 13.3879 54.2963 13.3879C54.4282 13.3879 54.5728 13.3502 54.7299 13.2747C55.6974 12.8282 56.7398 11.9399 57.1812 10.9743C57.3676 10.5736 57.7318 10.1729 58.2089 10.1729C58.3598 10.1729 58.4949 10.2295 58.6143 10.3426C58.9001 10.5983 58.8071 11.0797 58.6615 11.3891C58.7997 11.2131 58.9977 11.034 59.2554 10.8517C59.7957 10.4564 60.4236 10.1695 61.0656 9.98434C61.6236 9.8264 62.3382 9.71673 62.8381 10.088C63.3043 10.4118 63.207 11.1337 63.0738 11.606C62.9297 12.1169 62.6981 12.6088 62.4327 13.0673C62.2787 13.3386 62.1104 13.6013 61.9421 13.8639C61.7602 14.1479 61.5782 14.4319 61.4144 14.7267C61.3198 14.8431 61.2267 15.0727 61.339 15.2075C61.7664 15.7203 63.554 14.3212 63.9418 14.0666C63.9974 13.4775 64.247 12.9062 64.554 12.4074C64.9897 11.6994 65.5839 11.0811 66.2793 10.6254C67.0535 10.1182 67.9545 9.83349 68.8815 9.83349C69.4032 9.83349 69.7929 9.95919 70.0506 10.2106C70.5521 10.6999 70.5115 11.4976 70.2297 12.0868C69.831 12.9205 68.9225 13.4609 68.1461 13.8876C67.5804 14.1955 66.8702 14.5067 66.0153 14.8209C66.0927 15.2697 66.5611 15.4055 66.9582 15.4055C67.9577 15.4055 68.9312 14.9615 69.8149 14.5287C70.3065 14.2778 70.7965 14.0167 71.2668 13.7273C71.4045 13.6456 71.5915 13.4964 71.757 13.4727C71.9333 13.4507 72.1008 13.4834 72.2002 13.6424C72.3833 13.8561 72.2942 14.1997 72.1342 14.3967C71.58 14.9508 70.8133 15.3608 70.1354 15.7449C69.7646 15.9523 69.3686 16.144 68.9475 16.32C67.5811 16.8997 65.6662 17.4459 64.554 16.1314C64.3754 15.9138 64.234 15.6665 64.1298 15.3894C63.2324 16.0039 62.2646 16.4786 61.2165 16.782C60.7348 16.9302 60.0377 17.0966 59.6608 16.6594C59.1176 15.9804 59.6 14.9071 59.9342 14.2553C60.0662 14.0101 60.2045 13.7681 60.3491 13.5293C60.6433 13.0305 60.8955 12.5902 61.0562 12.2565C61.1479 12.066 61.2595 11.79 61.0939 11.606C60.8288 11.2415 59.9622 11.6939 59.708 11.8605C58.6526 12.5641 57.9381 13.6616 57.2556 14.71L57.2505 14.7178C57.2116 14.7775 57.1728 14.8371 57.1341 14.8964C56.9874 15.1384 56.8682 15.3937 56.7489 15.6491C56.6582 15.8431 56.5675 16.0373 56.4647 16.2257C56.2692 16.5733 55.9831 16.9328 55.5502 16.9328C55.1399 16.9328 54.8431 16.6251 54.8431 16.2163C54.8431 15.8633 55.0301 15.471 55.1942 15.1267L55.1947 15.1256C55.2375 15.036 55.2786 14.9496 55.3145 14.8681C55.4081 14.6552 55.509 14.4323 55.6171 14.1993L55.6068 14.2081C55.3868 14.3967 55.1574 14.557 54.9185 14.6889C54.5472 14.8941 54.1251 14.9408 53.7211 14.8115C53.5703 14.7612 53.4163 14.6795 53.2592 14.5664C53.0329 14.9184 52.7752 15.2389 52.4861 15.528C52.1969 15.8172 51.8732 16.0654 51.515 16.2729C51.163 16.4803 50.7796 16.6406 50.3647 16.7537C49.9562 16.8731 49.5194 16.9328 49.0542 16.9328C48.8783 16.9328 48.674 16.8983 48.4414 16.8291C48.2089 16.76 47.9857 16.6468 47.772 16.4897C47.5646 16.3263 47.3886 16.1157 47.2441 15.858C47.0995 15.6003 47.0272 15.2861 47.0272 14.9152C47.0272 14.8423 47.0306 14.7652 47.0375 14.6838C46.7767 14.8562 46.494 15.0366 46.1881 15.2263C45.6916 15.5343 45.1227 15.8769 44.4816 16.254C44.4816 17.0756 44.2521 17.8013 43.8028 18.4885C43.0594 19.6599 41.7414 20.902 40.2861 20.902C39.5816 20.902 38.7589 20.676 38.4194 19.9969C37.998 19.1822 38.6291 18.4423 39.2208 17.9416C40.1608 17.1643 41.2612 16.582 42.3415 16.0277C42.2346 15.9837 42.1215 15.9586 42.0021 15.9523C41.7257 15.937 41.4488 15.9431 41.1724 15.9523C40.734 15.9669 40.1919 15.9523 39.843 15.9429C39.0937 15.9226 37.97 16.0277 36.9957 16.5934C36.4138 16.9313 35.8844 17.3405 35.393 17.8002C35.0179 18.7787 34.6361 19.7666 34.1673 20.7041C33.8453 21.3719 32.7473 22.974 31.8763 22.0334C31.3147 21.4493 31.778 20.3021 32.0837 19.7141C32.552 18.8469 33.1694 18.0694 33.7808 17.3005L35.6664 13.4822C34.7236 14.6009 33.8688 15.4558 33.102 16.0466C32.4765 16.5285 31.218 17.3236 30.4055 16.782C29.9838 16.5184 30.221 15.7763 30.342 15.4135C29.6698 15.5883 28.7712 15.7328 28.2182 15.2075C27.1684 16.4673 25.2737 17.6131 23.5985 16.8951C22.7239 16.5411 22.4455 15.6233 22.5038 14.7369C22.2562 14.8923 21.9957 15.0555 21.7223 15.2263C21.4269 15.4086 21.1252 15.5878 20.8172 15.7637C20.5155 15.9397 20.2232 16.0969 19.9404 16.2351L19.929 16.2407L19.8955 16.257C19.1892 16.5992 18.1787 17.0096 17.5174 16.386C17.0274 15.9105 17.1975 15.2179 17.4514 14.6701C17.5708 14.4124 17.7059 14.1673 17.8568 13.9347C17.9903 13.7289 18.1754 13.5158 18.367 13.2954C18.7893 12.8094 19.2427 12.2876 19.2427 11.7285C19.2427 11.5017 18.9792 11.5953 18.8201 11.6518C18.7984 11.6595 18.7787 11.6665 18.7619 11.672C18.3713 11.8021 17.9939 11.9889 17.6588 12.2282C15.4055 15.1698 14.7266 15.5563 13.4444 16.2446C13.1376 16.4093 12.8011 16.5397 12.4921 16.6594C12.4345 16.6817 12.3778 16.7037 12.3225 16.7254C11.9705 16.8637 11.6154 16.9328 11.2571 16.9328C10.748 16.9328 10.3457 16.804 10.0503 16.5463C9.7612 16.2823 9.61663 15.8737 9.61663 15.3206C9.61663 15.2494 9.61911 15.1785 9.62408 15.108C9.49651 15.2044 9.36159 15.298 9.22065 15.3866C8.78068 15.6632 8.32813 15.9177 7.86301 16.1503C7.39789 16.3766 6.9202 16.562 6.42994 16.7066C5.93968 16.8574 5.43685 16.9328 4.92145 16.9328C4.02893 16.9328 3.58267 16.5463 3.58267 15.7732C3.58267 15.3646 3.66752 15.0064 3.83722 14.6984C4.01322 14.3841 4.22378 14.1107 4.46891 13.8781C4.72032 13.6456 4.98116 13.4476 5.25143 13.2842C5.52171 13.1145 5.75427 12.9636 5.94911 12.8316C6.09996 12.7436 6.24138 12.6493 6.37338 12.5488C6.50537 12.4482 6.62165 12.3445 6.72221 12.2376C6.82907 12.1308 6.91078 12.0239 6.96734 11.9171C7.0302 11.804 7.06162 11.6908 7.06162 11.5777C7.06162 11.3954 6.97677 11.3043 6.80707 11.3043C6.17853 11.3043 5.29858 11.9108 4.16721 13.1239C3.90951 13.4004 3.6738 13.6707 3.4601 13.9347C3.2464 14.1924 3.04527 14.447 2.85671 14.6984C2.67443 14.9498 2.49844 15.1949 2.32873 15.4338C2.15903 15.6663 1.99247 15.8895 1.82905 16.1032C1.33879 16.6563 0.901952 16.9328 0.518544 16.9328C0.336268 16.9328 0.204275 16.8983 0.122565 16.8291C0.040855 16.7663 0 16.6437 0 16.4614V16.386C0 16.3609 0.00314269 16.3326 0.00942807 16.3011C0.0219988 16.1754 0.0754246 15.9837 0.169705 15.726C0.263986 15.4683 0.380265 15.1761 0.518544 14.8492C0.663108 14.5224 0.820242 14.1735 0.989947 13.8027C1.16594 13.4319 1.33879 13.0705 1.50849 12.7185C1.6782 12.3602 1.83847 12.0271 1.98932 11.7191C2.14017 11.4048 2.26588 11.144 2.36645 10.9366L5.34572 4.85547C5.38343 4.77376 5.44 4.69519 5.51542 4.61976C5.59713 4.54434 5.68513 4.47834 5.77941 4.42177C5.87997 4.35892 5.98368 4.31178 6.09053 4.28035C6.20367 4.24264 6.31681 4.22379 6.42994 4.22379C6.71279 4.22379 6.90763 4.27721 7.01448 4.38406C7.12762 4.49091 7.18419 4.61976 7.18419 4.77061C7.18419 4.90889 7.14962 5.05346 7.08048 5.2043C7.01763 5.35515 6.9422 5.49657 6.85421 5.62857C6.59022 6.09997 6.32623 6.6028 6.06225 7.13706C5.80455 7.66503 5.54685 8.20243 5.28915 8.74926C5.03145 9.29609 4.7706 9.83663 4.50662 10.3709C4.24263 10.8989 3.9755 11.3985 3.70523 11.87ZM27.4263 11.408C27.068 11.408 26.7097 11.496 26.3515 11.672C25.9932 11.8417 25.6695 12.0679 25.3804 12.3508C25.0975 12.6336 24.865 12.9542 24.6827 13.3124C24.5004 13.6644 24.4093 14.0227 24.4093 14.3872C24.4093 14.4878 24.4187 14.5915 24.4376 14.6984C24.4564 14.7989 24.4941 14.8932 24.5507 14.9812C24.6135 15.0692 24.7015 15.1415 24.8147 15.1981C24.9278 15.2546 25.0787 15.2829 25.2672 15.2829C25.6318 15.2829 25.9838 15.1981 26.3232 15.0284C26.6689 14.8524 26.9768 14.6229 27.2471 14.3401C27.5174 14.0573 27.7342 13.7399 27.8977 13.3879C28.0611 13.0296 28.1428 12.6713 28.1428 12.3131C28.1428 12.2188 28.1334 12.1182 28.1145 12.0114C28.1019 11.9045 28.0705 11.8071 28.0202 11.7191C27.9699 11.6311 27.8977 11.5588 27.8034 11.5023C27.7091 11.4394 27.5834 11.408 27.4263 11.408ZM41.2949 19.535C41.8029 19.233 42.2242 18.7764 42.5112 18.2622C42.6984 17.9476 42.8022 17.5639 42.7563 17.1968C42.3163 17.4231 41.9235 17.6368 41.5778 17.8379C40.9049 18.2367 40.4267 18.5804 40.173 18.8467C39.9737 19.0775 39.9204 19.3561 40.173 19.5821C40.4992 19.8757 40.9658 19.7396 41.2949 19.535ZM50.4307 11.7285C50.7073 11.5777 50.9933 11.5023 51.2887 11.5023C51.4835 11.5023 51.6375 11.54 51.7507 11.6154C51.8638 11.6845 51.9487 11.7757 52.0052 11.8888C52.0681 12.0019 52.1058 12.1277 52.1184 12.2659C52.1372 12.3979 52.1467 12.5268 52.1467 12.6525C52.1467 12.973 52.0838 13.2904 51.9581 13.6047C51.8324 13.919 51.6627 14.2018 51.449 14.4532C51.2353 14.6984 50.9901 14.8995 50.7136 15.0566C50.4433 15.2075 50.1636 15.2829 49.8745 15.2829C49.6859 15.2829 49.5351 15.2421 49.4219 15.1603C49.3088 15.0786 49.2208 14.9781 49.158 14.8586C49.1014 14.7329 49.0637 14.6009 49.0448 14.4627C49.026 14.3181 49.0165 14.1861 49.0165 14.0667C49.0165 13.7461 49.0794 13.435 49.2051 13.1333C49.3308 12.8253 49.4974 12.5519 49.7048 12.3131C49.9185 12.0679 50.1605 11.8731 50.4307 11.7285ZM68.5421 11.1346C68.7042 11.1616 68.8343 11.2979 68.8343 11.4645C68.8343 11.8701 68.3892 12.1738 68.0895 12.3602C67.5674 12.6735 67.0743 13.0345 66.5527 13.3502C66.3202 13.4947 66.0939 13.6236 65.8739 13.7367C66.1171 12.9665 66.5192 12.1847 67.1279 11.6437C67.4791 11.3301 68.0532 11.0368 68.5421 11.1346Z" fill="#F9E79F"/>
<path d="M12.4828 8.54184C12.4828 8.39728 12.5079 8.24957 12.5582 8.09872C12.6148 7.94159 12.6965 7.80017 12.8033 7.67446C12.9102 7.54875 13.0422 7.44504 13.1993 7.36333C13.3627 7.28162 13.5544 7.24077 13.7744 7.24077C14.139 7.24077 14.3935 7.31305 14.5381 7.45761C14.6826 7.59589 14.7549 7.77188 14.7549 7.98559C14.7549 8.10501 14.7298 8.237 14.6795 8.38156C14.6355 8.52613 14.5664 8.66126 14.4721 8.78697C14.3778 8.90639 14.2552 9.00696 14.1044 9.08867C13.9535 9.17038 13.7744 9.21123 13.567 9.21123C13.1773 9.21123 12.9039 9.15152 12.7468 9.0321C12.5896 8.90639 12.5016 8.74297 12.4828 8.54184Z" fill="#F9E79F"/>
<path fill-rule="evenodd" clip-rule="evenodd" d="M95.6383 9.5899V17.8036C95.6383 19.3159 94.8315 20.7132 93.5219 21.4694L85.6868 25.993C84.3771 26.7491 82.7636 26.7491 81.454 25.993L73.6188 21.4694C72.3092 20.7132 71.5024 19.3159 71.5024 17.8036V8.75641C71.5024 7.24418 72.3092 5.84682 73.6188 5.0907L81.454 0.567088C82.7636 -0.189029 84.3771 -0.189029 85.6868 0.567088L89.6043 2.82889C90.2151 3.18154 91.2323 4.30659 90.408 4.92293C89.9774 5.44759 89.2265 5.83155 87.7912 6.56555C86.8907 7.02602 86.0234 7.55024 85.0949 7.95504C85.8374 8.12444 86.5565 8.34107 87.2168 8.7327C87.753 9.05073 88.1809 9.41472 88.5005 9.82465C89.0503 9.66609 89.5141 9.52757 89.9219 9.40578C91.6607 8.8865 92.381 8.6714 94.403 8.50455C95.0333 8.45254 95.6383 8.94851 95.6383 9.5899ZM82.4308 2.25895C83.136 1.85182 84.0048 1.85181 84.71 2.25896L87.9495 4.1293C87.8163 4.23517 87.668 4.34253 87.5017 4.44939C85.6809 5.55154 83.7003 6.38704 81.9362 7.57676C81.58 7.81752 80.406 8.67524 80.8939 9.21428C81.1362 9.44668 81.5087 9.54898 81.8292 9.63697C82.949 9.94442 84.4803 9.91675 85.4387 10.5937C84.1113 10.9322 82.9649 11.2631 81.9997 11.5865C81.0321 11.9202 80.229 12.2479 79.5903 12.5696C78.7753 12.9917 77.7215 13.6129 77.4991 14.5874C77.3368 15.299 77.5157 16.0333 77.9879 16.5906C79.3416 18.2629 81.8285 18.1161 83.6156 17.3691C84.8327 16.8739 85.985 16.1123 86.9182 15.1874C87.9137 14.227 88.5644 13.1184 88.8724 11.7685C91.2326 11.0192 92.148 10.8399 93.6847 10.5264V17.8036C93.6847 18.6179 93.2503 19.3703 92.5451 19.7775L84.71 24.3011C84.0048 24.7082 83.136 24.7082 82.4308 24.3011L74.5956 19.7775C73.8905 19.3703 73.456 18.6179 73.456 17.8036V8.75641C73.456 7.94213 73.8905 7.18971 74.5956 6.78257L82.4308 2.25895ZM83.5042 13.2832C84.148 13.0822 84.874 12.8783 85.6822 12.6713C85.5214 14.2745 83.8145 15.5116 82.4026 15.9672C81.7847 16.1801 80.9665 16.2288 80.5404 15.6238C80.2099 15.1574 80.402 14.7194 80.8162 14.4148C81.6029 13.8932 82.5442 13.5912 83.4374 13.3047C83.4597 13.2975 83.4819 13.2904 83.5042 13.2832Z" fill="#F9E79F"/>
</svg>
