<svg width="70" height="78" viewBox="0 0 70 78" fill="none" xmlns="http://www.w3.org/2000/svg">
<path fill-rule="evenodd" clip-rule="evenodd" d="M70 28.163V52.2847C70 56.7257 67.6602 60.8294 63.8619 63.0499L41.1381 76.3346C37.3398 78.5551 32.6602 78.5551 28.8619 76.3346L6.13809 63.0499C2.33983 60.8294 0 56.7257 0 52.2847V25.7153C0 21.2743 2.33983 17.1706 6.13809 14.9501L28.8619 1.66539C32.6602 -0.55513 37.3398 -0.55513 41.1381 1.66539L52.5 8.30773C54.2715 9.34336 57.2216 12.6473 54.8307 14.4574C53.5819 15.9981 51.4043 17.1257 47.2414 19.2813C44.6298 20.6336 42.1145 22.1731 39.4217 23.3619C41.5749 23.8594 43.6605 24.4956 45.5756 25.6457C47.1308 26.5797 48.3718 27.6486 49.2987 28.8524C50.8932 28.3868 52.2384 27.98 53.4212 27.6223C58.464 26.0974 60.5529 25.4657 66.4173 24.9757C68.2453 24.8229 70 26.2795 70 28.163ZM31.6949 6.63396C33.7401 5.4383 36.2599 5.4383 38.3051 6.63397L47.7006 12.1267C47.3144 12.4376 46.8843 12.7529 46.4019 13.0667C41.121 16.3034 35.377 18.7571 30.2604 22.251C29.2274 22.958 25.8224 25.4769 27.2377 27.0599C27.9402 27.7424 29.0208 28.0429 29.9502 28.3013C33.1979 29.2042 37.6389 29.1229 40.4186 31.1109C36.5687 32.1051 33.2441 33.0769 30.4447 34.0265C27.6384 35.0064 25.3091 35.9688 23.4567 36.9136C21.093 38.1534 18.0368 39.9775 17.3919 42.8395C16.921 44.9293 17.4399 47.0857 18.8095 48.7222C22.7356 53.6333 29.9481 53.2023 35.1311 51.0085C38.6609 49.5543 42.0031 47.3177 44.7095 44.6014C47.5968 41.7812 49.4838 38.5252 50.3771 34.561C57.2223 32.3605 59.8772 31.8338 64.3341 30.9132V52.2847C64.3341 54.676 63.0742 56.8857 61.029 58.0813L38.3051 71.366C36.2599 72.5617 33.7401 72.5617 31.6949 71.366L8.97105 58.0814C6.92583 56.8857 5.66593 54.676 5.66593 52.2847V25.7153C5.66593 23.324 6.92583 21.1143 8.97105 19.9186L31.6949 6.63396ZM34.808 39.0094C36.6752 38.4192 38.7807 37.8201 41.1248 37.2123C40.6584 41.9205 35.708 45.5535 31.6131 46.8914C29.8212 47.5166 27.4482 47.6597 26.2123 45.883C25.2537 44.5134 25.8111 43.2271 27.0124 42.3325C29.294 40.8008 32.024 39.9139 34.6143 39.0724C34.679 39.0514 34.7435 39.0304 34.808 39.0094Z" fill="#F9E79F"/>
</svg>
