<svg width="90" height="80" viewBox="0 0 90 80" fill="none" xmlns="http://www.w3.org/2000/svg">
<path opacity="0.5" d="M79.0617 7.35149C58.3219 -8.52651 46.9863 5.21949 14.9149 12.2224C-20.7772 20.016 18.7728 86.7487 53.0178 79.4421C87.2627 72.1355 99.8015 23.2295 79.0617 7.35149Z" fill="#FFFBF5"/>
<path d="M37.768 15.7186C38.4646 15.7186 39.0293 14.8551 39.0293 13.7898C39.0293 12.7246 38.4646 11.8611 37.768 11.8611C37.0714 11.8611 36.5067 12.7246 36.5067 13.7898C36.5067 14.8551 37.0714 15.7186 37.768 15.7186Z" fill="#FFFBF5"/>
<path d="M37.768 15.7186C38.4646 15.7186 39.0293 14.8551 39.0293 13.7898C39.0293 12.7246 38.4646 11.8611 37.768 11.8611C37.0714 11.8611 36.5067 12.7246 36.5067 13.7898C36.5067 14.8551 37.0714 15.7186 37.768 15.7186Z" fill="#F4C430" fill-opacity="0.26"/>
<path d="M52.0845 15.7184C52.7811 15.7184 53.3458 14.8548 53.3458 13.7896C53.3458 12.7244 52.7811 11.8608 52.0845 11.8608C51.3879 11.8608 50.8232 12.7244 50.8232 13.7896C50.8232 14.8548 51.3879 15.7184 52.0845 15.7184Z" fill="#FFFBF5"/>
<path d="M52.0845 15.7184C52.7811 15.7184 53.3458 14.8548 53.3458 13.7896C53.3458 12.7244 52.7811 11.8608 52.0845 11.8608C51.3879 11.8608 50.8232 12.7244 50.8232 13.7896C50.8232 14.8548 51.3879 15.7184 52.0845 15.7184Z" fill="#F4C430" fill-opacity="0.26"/>
<path d="M75.6854 57.8007C75.6854 57.8007 70.7855 59.4031 70.3148 58.7899L69.8551 58.2382C67.4364 55.2854 60.4009 49.2234 59.1911 47.3232C57.6673 44.8941 56.444 42.289 55.5478 39.5651C55.375 39.0622 55.2334 38.5915 55.0881 38.1199C54.3343 35.6378 52.8423 37.4442 50.8794 35.7297L49.1521 34.2221C47.8798 36.1223 46.498 36.7346 44.9434 35.1956C43.3887 36.7346 42.0062 36.1223 40.7347 34.2221L39.0073 35.7297C37.0446 37.4414 35.5526 35.6378 34.7986 38.1199C34.6571 38.5915 34.5164 39.0622 34.3389 39.5651C33.4429 42.2889 32.2195 44.8941 30.6957 47.3232C29.4868 49.2234 22.4504 55.2854 20.0317 58.2382L19.572 58.7899C19.1003 59.4021 14.2004 57.8007 14.2004 57.8007C17.3261 53.1996 27.4239 43.0539 28.4765 40.2739L30.1882 35.8612C30.762 34.7535 31.1896 33.5763 31.4605 32.3586C32.2612 25.6678 35.1194 24.7099 35.1194 24.7099C35.7684 24.7564 36.4204 24.7407 37.0665 24.6631C39.7739 24.2508 42.4179 23.4962 44.9349 22.4172C47.4519 23.4962 50.0958 24.2508 52.8032 24.6631C53.4493 24.7407 54.1013 24.7564 54.7503 24.7099C54.7503 24.7099 57.6084 25.6678 58.4092 32.3586C58.6802 33.5761 59.1078 34.7535 59.6815 35.8612L61.3932 40.2739C62.4647 43.054 72.5606 53.1996 75.6854 57.8007Z" fill="#FFFBF5"/>
<path d="M75.6854 57.8007C75.6854 57.8007 70.7855 59.4031 70.3148 58.7899L69.8551 58.2382C67.4364 55.2854 60.4009 49.2234 59.1911 47.3232C57.6673 44.8941 56.444 42.289 55.5478 39.5651C55.375 39.0622 55.2334 38.5915 55.0881 38.1199C54.3343 35.6378 52.8423 37.4442 50.8794 35.7297L49.1521 34.2221C47.8798 36.1223 46.498 36.7346 44.9434 35.1956C43.3887 36.7346 42.0062 36.1223 40.7347 34.2221L39.0073 35.7297C37.0446 37.4414 35.5526 35.6378 34.7986 38.1199C34.6571 38.5915 34.5164 39.0622 34.3389 39.5651C33.4429 42.2889 32.2195 44.8941 30.6957 47.3232C29.4868 49.2234 22.4504 55.2854 20.0317 58.2382L19.572 58.7899C19.1003 59.4021 14.2004 57.8007 14.2004 57.8007C17.3261 53.1996 27.4239 43.0539 28.4765 40.2739L30.1882 35.8612C30.762 34.7535 31.1896 33.5763 31.4605 32.3586C32.2612 25.6678 35.1194 24.7099 35.1194 24.7099C35.7684 24.7564 36.4204 24.7407 37.0665 24.6631C39.7739 24.2508 42.4179 23.4962 44.9349 22.4172C47.4519 23.4962 50.0958 24.2508 52.8032 24.6631C53.4493 24.7407 54.1013 24.7564 54.7503 24.7099C54.7503 24.7099 57.6084 25.6678 58.4092 32.3586C58.6802 33.5761 59.1078 34.7535 59.6815 35.8612L61.3932 40.2739C62.4647 43.054 72.5606 53.1996 75.6854 57.8007Z" fill="#F4C430" fill-opacity="0.26"/>
<path d="M72.8371 69.876L56.0495 68.589L47.8796 69.9321L45.0297 67.4142L42.1201 69.9321L33.9502 68.589L17.1627 69.876C4.96341 67.3581 9.66375 59.5796 9.66375 59.5796C13.2822 55.5043 25.4934 57.4864 31.526 58.7734C33.058 59.0898 34.5564 58.1044 34.8728 56.5724C34.8941 56.4694 34.9096 56.3655 34.9193 56.2609C34.9995 55.0791 35.3119 53.9248 35.8386 52.864C41.899 54.0027 48.1185 54.0027 54.1789 52.864C54.6524 53.9456 54.9473 55.0968 55.0522 56.2728C55.2036 57.8329 56.5909 58.9748 58.1508 58.8235C58.2504 58.8139 58.3493 58.799 58.4473 58.7788C64.4697 57.4918 76.715 55.4968 80.3388 59.5787C80.3351 59.5789 85.0365 67.3572 72.8371 69.876Z" fill="#2C2528"/>
<path d="M27.0755 64.4622C26.9972 64.5868 26.8614 64.6636 26.7143 64.6662C26.6365 64.6676 26.56 64.6458 26.4946 64.6037L26.353 64.5256C21.4218 61.6205 19.38 60.4264 13.3962 62.7669C13.3455 62.7848 13.2927 62.7953 13.239 62.7983C19.6154 60.3014 21.9082 60.9448 26.7768 63.8031L26.934 63.8812C27.1304 64.0048 27.1931 64.2622 27.0755 64.4622Z" fill="#414451"/>
<path d="M63.2284 63.7992L63.0712 63.8774C62.8748 64.0009 62.812 64.2583 62.9296 64.4583C63.0079 64.583 63.1438 64.6597 63.2909 64.6624C63.3684 64.6617 63.4444 64.6402 63.5106 64.5999L63.6522 64.5217C68.5834 61.6167 70.6252 60.4225 76.609 62.7631C76.6877 62.7993 76.7772 62.8049 76.86 62.7787C70.4836 60.2819 68.0971 60.9411 63.2284 63.7992Z" fill="#414451"/>
<path d="M57.1123 74.9119C57.2244 75.7511 55.8253 76.255 54.814 75.4717C54.1965 74.924 53.5422 74.419 52.856 73.9604C52.6426 73.845 52.4177 73.7524 52.1849 73.6845C50.2881 73.0667 48.2635 72.9512 46.3087 73.349C43.3992 73.7407 36.8518 72.3378 36.8518 72.3378L32.8234 71.9462L24.8778 71.1068C24.602 71.0506 24.3741 71.0506 24.0945 70.9947L17.3835 69.9311C17.9434 65.3428 22.9233 62.8247 26.3368 63.5519C26.3368 63.5519 34.5067 67.9167 38.6473 68.8673C39.2143 69.0075 39.8018 69.0454 40.3821 68.9794C41.6265 68.8743 42.8131 68.4074 43.7956 67.6362C44.7471 66.8529 46.0939 66.6847 48.1604 69.8748C48.1604 69.8748 54.6517 69.2588 56.5538 73.12C56.8637 73.6714 57.0543 74.2819 57.1123 74.9119Z" fill="#FFFBF5"/>
<path d="M57.1123 74.9119C57.2244 75.7511 55.8253 76.255 54.814 75.4717C54.1965 74.924 53.5422 74.419 52.856 73.9604C52.6426 73.845 52.4177 73.7524 52.1849 73.6845C50.2881 73.0667 48.2635 72.9512 46.3087 73.349C43.3992 73.7407 36.8518 72.3378 36.8518 72.3378L32.8234 71.9462L24.8778 71.1068C24.602 71.0506 24.3741 71.0506 24.0945 70.9947L17.3835 69.9311C17.9434 65.3428 22.9233 62.8247 26.3368 63.5519C26.3368 63.5519 34.5067 67.9167 38.6473 68.8673C39.2143 69.0075 39.8018 69.0454 40.3821 68.9794C41.6265 68.8743 42.8131 68.4074 43.7956 67.6362C44.7471 66.8529 46.0939 66.6847 48.1604 69.8748C48.1604 69.8748 54.6517 69.2588 56.5538 73.12C56.8637 73.6714 57.0543 74.2819 57.1123 74.9119Z" fill="#F4C430" fill-opacity="0.26"/>
<path d="M56.5533 73.1213L53.2521 73.4568C53.196 73.4568 52.8043 73.5689 52.1894 73.6812C50.2926 73.0633 48.268 72.9477 46.3132 73.3457C43.4037 73.7373 36.8563 72.3345 36.8563 72.3345L32.8279 71.9428C34.2377 70.1313 36.3562 69.0108 38.6472 68.865C39.2142 69.0052 39.8016 69.0432 40.382 68.9771C41.6264 68.872 42.8129 68.4052 43.7955 67.634C44.747 66.8507 46.0937 66.6824 48.1603 69.8725C48.159 69.8761 54.6503 69.2601 56.5533 73.1213Z" fill="#EEDDA7"/>
<path d="M63.6854 63.5531C63.6854 63.5531 52.3706 69.5278 49.5942 68.989C47.5276 68.5873 46.9787 68.271 46.212 67.6458C45.2587 66.8691 43.9138 66.6824 41.8196 69.8596C41.8196 69.8596 33.4842 69.1029 32.871 74.9157C32.7837 75.7431 34.1581 76.2598 35.1638 75.4562C35.7859 74.928 36.4385 74.4368 37.1183 73.9853C38.8651 73.0504 40.7634 72.9795 43.6952 73.3749C46.6269 73.7703 53.1283 72.3415 53.1283 72.3415L65.1373 71.1022C65.3861 71.0765 65.6341 71.0436 65.881 71.0039L72.6132 69.9174C72.076 65.3319 67.0667 62.8204 63.6854 63.5531Z" fill="#FFFBF5"/>
<path d="M63.6854 63.5531C63.6854 63.5531 52.3706 69.5278 49.5942 68.989C47.5276 68.5873 46.9787 68.271 46.212 67.6458C45.2587 66.8691 43.9138 66.6824 41.8196 69.8596C41.8196 69.8596 33.4842 69.1029 32.871 74.9157C32.7837 75.7431 34.1581 76.2598 35.1638 75.4562C35.7859 74.928 36.4385 74.4368 37.1183 73.9853C38.8651 73.0504 40.7634 72.9795 43.6952 73.3749C46.6269 73.7703 53.1283 72.3415 53.1283 72.3415L65.1373 71.1022C65.3861 71.0765 65.6341 71.0436 65.881 71.0039L72.6132 69.9174C72.076 65.3319 67.0667 62.8204 63.6854 63.5531Z" fill="#F4C430" fill-opacity="0.26"/>
<path d="M52.9101 44.0394C52.251 45.6942 51.2553 46.3165 54.1741 52.8649C48.1317 54.1826 41.8763 54.1826 35.8339 52.8649C38.7362 46.312 37.7387 45.6942 37.0088 44.0394C36.8969 43.7561 36.7418 43.4919 36.5491 43.2561C36.5216 43.1776 36.4792 43.1052 36.4241 43.0427C35.4923 41.9703 34.7949 40.7151 34.3768 39.3572C33.691 36.7326 34.4735 33.9421 36.4241 32.0569L35.229 24.7023C35.8756 24.7521 36.5254 24.7402 37.1697 24.6665C37.2617 29.1537 52.7319 29.1537 52.8211 24.6665C53.4653 24.7402 54.1152 24.7522 54.7618 24.7023L53.5667 32.0569C55.5737 33.998 56.3355 36.894 55.5432 39.5713C55.1205 40.8481 54.4487 42.0283 53.5667 43.0435C53.5116 43.1059 53.4691 43.1783 53.4417 43.2569C53.244 43.5034 53.0663 43.7649 52.9101 44.0394Z" fill="#F4C430"/>
<path d="M47.6774 20.0601V23.7042C46.9682 24.3252 46.0778 24.7012 45.1382 24.7762H44.7098C43.7703 24.7012 42.8798 24.3253 42.1707 23.7042V20.0601H47.6774Z" fill="#FFFBF5"/>
<path d="M47.6774 20.0601V23.7042C46.9682 24.3252 46.0778 24.7012 45.1382 24.7762H44.7098C43.7703 24.7012 42.8798 24.3253 42.1707 23.7042V20.0601H47.6774Z" fill="#F4C430" fill-opacity="0.26"/>
<path d="M52.0762 7.71094V16.5566C52.084 17.8693 51.5604 19.1294 50.6247 20.0499C49.1189 21.5208 46.7351 23.4816 44.9249 23.2804C43.1148 23.4818 40.731 21.518 39.2252 20.0499C38.2895 19.1292 37.7659 17.8692 37.7736 16.5566V7.71094H52.0762Z" fill="#FFFBF5"/>
<path d="M52.0762 7.71094V16.5566C52.084 17.8693 51.5604 19.1294 50.6247 20.0499C49.1189 21.5208 46.7351 23.4816 44.9249 23.2804C43.1148 23.4818 40.731 21.518 39.2252 20.0499C38.2895 19.1292 37.7659 17.8692 37.7736 16.5566V7.71094H52.0762Z" fill="#F4C430" fill-opacity="0.26"/>
<path d="M44.926 5.16076C46.504 5.16076 47.7832 4.11244 47.7832 2.81927C47.7832 1.5261 46.504 0.477783 44.926 0.477783C43.348 0.477783 42.0688 1.5261 42.0688 2.81927C42.0688 4.11244 43.348 5.16076 44.926 5.16076Z" fill="#2C2528"/>
<path d="M52.6279 10.6977C52.6921 11.5015 52.0927 12.2051 51.289 12.2692C51.1155 12.283 50.941 12.2658 50.7737 12.2182C48.2916 11.4681 46.7122 10.6352 45.4205 7.67681C44.2054 10.1662 41.8159 11.8743 39.0671 12.2182C38.2542 12.4075 37.4416 11.9019 37.2523 11.089C37.2223 10.9608 37.2095 10.8293 37.2137 10.6977C37.5262 6.07349 39.3796 2.90747 44.4625 2.67847H45.4002C50.485 2.90747 52.3383 6.07364 52.6279 10.6977Z" fill="#2C2528"/>
</svg>
