<svg width="192" height="130" viewBox="0 0 192 130" fill="none" xmlns="http://www.w3.org/2000/svg">
<path d="M21.2411 63.0786V85.3102H17.054L5.88831 71.8516V85.4099H0.803955V63.0786H5.09077L16.1567 76.6369V63.0786H21.2411Z" fill="#2C2528"/>
<path d="M39.1859 69.859C40.5816 71.155 41.2794 73.0492 41.2794 75.5415V85.3115H36.5938V83.2179C35.6966 84.813 33.9021 85.6106 31.4098 85.6106C30.1138 85.6106 28.9175 85.4112 28.0202 84.9127C27.0233 84.5139 26.3254 83.8161 25.827 83.1182C25.3285 82.3207 25.0294 81.4234 25.0294 80.4265C25.0294 78.8314 25.6276 77.6351 26.8239 76.6382C28.0202 75.7409 29.9144 75.2425 32.4067 75.2425H36.3945C36.3945 74.1458 36.0954 73.3483 35.3975 72.7501C34.6997 72.152 33.8024 71.8529 32.4067 71.8529C31.5095 71.8529 30.6122 71.9526 29.715 72.2517C28.8178 72.5507 28.1199 72.9495 27.5218 73.448L25.7273 69.9587C26.6245 69.2609 27.8208 68.7624 29.1168 68.4633C30.4129 68.0645 31.8086 67.9648 33.1046 67.9648C35.6966 67.9648 37.6905 68.6627 39.1859 69.859ZM34.8991 81.7225C35.5969 81.3237 35.9957 80.7256 36.2948 80.0277V78.2333H32.9052C30.9113 78.2333 29.8147 78.9311 29.8147 80.2271C29.8147 80.8253 30.0141 81.3237 30.5125 81.7225C31.011 82.1213 31.7089 82.3207 32.6061 82.3207C33.5033 82.221 34.3009 82.0216 34.8991 81.7225Z" fill="#2C2528"/>
<path d="M56.8316 84.5134C56.3331 84.9122 55.735 85.1116 55.0371 85.311C54.3393 85.5104 53.5417 85.6101 52.8439 85.6101C50.85 85.6101 49.2549 85.1116 48.1583 84.015C47.0616 83.018 46.4635 81.423 46.4635 79.4291V72.4506H43.8715V68.6622H46.4635V64.4751H51.4481V68.6622H55.735V72.4506H51.4481V79.4291C51.4481 80.1269 51.6475 80.7251 52.0463 81.1239C52.4451 81.5226 52.9435 81.722 53.6414 81.722C54.4389 81.722 55.1368 81.5226 55.6353 81.1239L56.8316 84.5134Z" fill="#2C2528"/>
<path d="M76.7702 68.2637V85.4109H72.0846V83.417C71.3867 84.1149 70.6889 84.7131 69.692 85.1118C68.7947 85.5106 67.7978 85.71 66.7012 85.71C64.4082 85.71 62.7134 85.1118 61.3177 83.8158C60.0217 82.5198 59.3239 80.6256 59.3239 78.0336V68.2637H64.3085V77.2361C64.3085 80.0275 65.5048 81.3235 67.7978 81.3235C68.9941 81.3235 69.8913 80.9247 70.6889 80.1272C71.3867 79.3296 71.7855 78.233 71.7855 76.6379V68.2637H76.7702Z" fill="#2C2528"/>
<path d="M88.534 68.6621C89.531 68.2633 90.7273 68.064 92.0233 68.064V72.6499C91.4251 72.6499 91.1261 72.5502 90.9267 72.5502C89.531 72.5502 88.4343 72.9489 87.6368 73.7465C86.8392 74.544 86.4405 75.7403 86.4405 77.3354V85.4106H81.4558V68.2633H86.2411V70.5563C86.7395 69.6591 87.5371 69.0609 88.534 68.6621Z" fill="#2C2528"/>
<path d="M111.464 78.2327H98.5034C98.7028 79.3293 99.3009 80.1268 100.198 80.725C101.095 81.3232 102.192 81.6223 103.488 81.6223C104.385 81.6223 105.183 81.5226 105.881 81.2235C106.579 80.9244 107.177 80.5256 107.775 79.9275L110.367 82.8186C108.772 84.613 106.379 85.61 103.289 85.61C101.394 85.61 99.6997 85.2112 98.2043 84.5134C96.7089 83.7158 95.6123 82.7189 94.8147 81.4229C94.0172 80.1268 93.6184 78.5318 93.6184 76.837C93.6184 75.1422 94.0172 73.6468 94.8147 72.3508C95.6123 71.0548 96.7089 69.9581 98.1046 69.1606C99.5003 68.363 101.095 68.064 102.79 68.064C104.485 68.064 105.98 68.4627 107.376 69.1606C108.772 69.8584 109.769 70.9551 110.566 72.2511C111.364 73.6468 111.763 75.1422 111.763 76.9367C111.563 76.9367 111.563 77.3354 111.464 78.2327ZM99.8991 72.6499C99.1015 73.248 98.7028 74.1453 98.5034 75.2419H106.977C106.778 74.1453 106.379 73.248 105.582 72.6499C104.784 72.0517 103.887 71.6529 102.79 71.6529C101.594 71.7526 100.697 72.0517 99.8991 72.6499Z" fill="#2C2528"/>
<path d="M115.95 61.7832H117.545V85.4105H115.95V61.7832Z" fill="#2C2528"/>
<path d="M138.281 77.4352H124.025C124.025 78.7312 124.424 79.9275 125.022 80.9245C125.62 81.9214 126.517 82.7189 127.514 83.2174C128.611 83.8156 129.707 84.015 131.103 84.015C132.2 84.015 133.197 83.8156 134.094 83.4168C134.991 83.018 135.789 82.4199 136.387 81.722L137.284 82.8186C136.586 83.7159 135.689 84.314 134.592 84.8125C133.496 85.311 132.299 85.5104 131.003 85.5104C129.309 85.5104 127.913 85.1116 126.617 84.4137C125.321 83.7159 124.324 82.7189 123.626 81.4229C122.928 80.1269 122.529 78.7312 122.529 77.0364C122.529 75.4413 122.828 73.9459 123.526 72.6499C124.224 71.3539 125.121 70.357 126.417 69.6591C127.713 68.9613 129.009 68.5625 130.505 68.5625C132 68.5625 133.396 68.9613 134.592 69.6591C135.789 70.357 136.686 71.3539 137.384 72.6499C138.082 73.9459 138.381 75.3416 138.381 76.9367L138.281 77.4352ZM127.315 70.7557C126.417 71.2542 125.62 72.0518 125.121 72.949C124.523 73.8462 124.224 74.9429 124.125 76.1392H136.885C136.786 74.9429 136.486 73.8462 135.888 72.949C135.29 72.0518 134.592 71.2542 133.595 70.7557C132.698 70.2573 131.602 69.9582 130.405 69.9582C129.209 70.0579 128.212 70.2573 127.315 70.7557Z" fill="#2C2528"/>
<path d="M153.135 70.1573C154.232 71.2539 154.83 72.7493 154.83 74.7431V85.3106H153.335V82.3198C152.836 83.3168 152.039 84.0146 151.042 84.6128C150.045 85.2109 148.848 85.4103 147.353 85.4103C145.559 85.4103 144.063 85.0116 142.967 84.1143C141.87 83.2171 141.371 82.1204 141.371 80.7247C141.371 79.329 141.87 78.2324 142.867 77.3352C143.864 76.4379 145.459 76.0392 147.552 76.0392H153.235V74.7431C153.235 73.148 152.836 72.0514 151.939 71.2539C151.141 70.4563 149.845 70.0576 148.25 70.0576C147.154 70.0576 146.057 70.2569 145.06 70.6557C144.063 71.0545 143.166 71.553 142.468 72.1511L141.671 71.0545C142.468 70.3566 143.465 69.7585 144.661 69.3597C145.858 68.9609 147.054 68.7615 148.35 68.7615C150.444 68.6619 152.039 69.1603 153.135 70.1573ZM151.042 83.2171C152.039 82.6189 152.736 81.622 153.235 80.4257V77.3352H147.552C145.957 77.3352 144.761 77.6342 143.963 78.2324C143.166 78.8306 142.867 79.6281 142.867 80.7247C142.867 81.8214 143.266 82.6189 144.063 83.3168C144.861 83.9149 145.957 84.214 147.453 84.214C148.848 84.214 150.045 83.8152 151.042 83.2171Z" fill="#2C2528"/>
<path d="M174.37 68.7617L166.893 85.3108H165.298L157.821 68.7617H159.516L166.095 83.616L172.775 68.7617H174.37Z" fill="#2C2528"/>
<path d="M191.318 77.4352H177.062C177.062 78.7312 177.46 79.9275 178.059 80.9245C178.657 81.9214 179.554 82.7189 180.551 83.2174C181.648 83.8156 182.744 84.015 184.14 84.015C185.237 84.015 186.233 83.8156 187.131 83.4168C188.028 83.018 188.825 82.4199 189.424 81.722L190.321 82.8186C189.623 83.7159 188.726 84.314 187.629 84.8125C186.533 85.311 185.336 85.5104 184.04 85.5104C182.345 85.5104 180.95 85.1116 179.654 84.4137C178.358 83.7159 177.361 82.7189 176.663 81.4229C175.965 80.1269 175.566 78.7312 175.566 77.0364C175.566 75.4413 175.865 73.9459 176.563 72.6499C177.261 71.3539 178.158 70.357 179.454 69.6591C180.75 68.9613 182.046 68.5625 183.542 68.5625C185.037 68.5625 186.433 68.9613 187.629 69.6591C188.825 70.357 189.723 71.3539 190.421 72.6499C191.118 73.9459 191.418 75.3416 191.418 76.9367L191.318 77.4352ZM180.252 70.7557C179.355 71.2542 178.557 72.0518 178.059 72.949C177.46 73.8462 177.161 74.9429 177.062 76.1392H189.822C189.723 74.9429 189.424 73.8462 188.825 72.949C188.227 72.0518 187.529 71.2542 186.533 70.7557C185.635 70.2573 184.539 69.9582 183.342 69.9582C182.246 70.0579 181.249 70.2573 180.252 70.7557Z" fill="#2C2528"/>
<path d="M35.951 98.1191H36.6833V107.22H42.3319V107.847H36.0557V98.1191H35.951Z" fill="#2C2528"/>
<path d="M48.922 107.428C48.3989 107.115 47.9805 106.696 47.6667 106.069C47.3529 105.546 47.1437 104.918 47.1437 104.186C47.1437 103.453 47.3529 102.826 47.6667 102.303C47.9805 101.78 48.3989 101.257 48.922 100.943C49.445 100.629 50.0726 100.42 50.8048 100.42C51.5371 100.42 52.1647 100.629 52.6877 100.943C53.2107 101.257 53.6292 101.675 53.943 102.303C54.2568 102.826 54.466 103.453 54.466 104.186C54.466 104.918 54.2568 105.546 53.943 106.069C53.6292 106.592 53.2107 107.115 52.6877 107.428C52.1647 107.742 51.5371 107.951 50.8048 107.951C50.0726 107.951 49.445 107.742 48.922 107.428ZM52.2693 106.905C52.6877 106.696 53.1061 106.278 53.3153 105.859C53.5246 105.441 53.7338 104.813 53.7338 104.29C53.7338 103.767 53.6292 103.14 53.3153 102.721C53.1061 102.303 52.6877 101.884 52.2693 101.675C51.8509 101.466 51.3279 101.257 50.8048 101.257C50.2818 101.257 49.7588 101.361 49.3404 101.675C48.922 101.989 48.5035 102.303 48.2943 102.721C48.0851 103.14 47.8759 103.767 47.8759 104.29C47.8759 104.813 47.9805 105.441 48.2943 105.859C48.5035 106.278 48.922 106.696 49.3404 106.905C49.7588 107.115 50.2818 107.324 50.8048 107.324C51.3279 107.324 51.7463 107.115 52.2693 106.905Z" fill="#2C2528"/>
<path d="M62.416 100.942C62.939 100.629 63.462 100.524 64.1942 100.524V101.256H63.985C63.1482 101.256 62.5206 101.465 62.1022 101.988C61.6837 102.511 61.3699 103.244 61.3699 104.08V107.846H60.6377V100.524H61.2653V102.093C61.5791 101.57 61.9976 101.152 62.416 100.942Z" fill="#2C2528"/>
<path d="M76.3283 104.395H70.0521C70.0521 104.918 70.2613 105.441 70.4705 105.859C70.6797 106.277 71.0981 106.591 71.5165 106.905C71.9349 107.114 72.458 107.219 73.0856 107.219C73.6086 107.219 74.027 107.114 74.4454 107.01C74.8639 106.8 75.1777 106.591 75.4915 106.277L75.9099 106.696C75.5961 107.114 75.1777 107.323 74.7593 107.533C74.2362 107.742 73.7132 107.846 73.1902 107.846C72.458 107.846 71.8303 107.637 71.2027 107.323C70.6797 107.01 70.1567 106.591 69.8428 105.964C69.529 105.441 69.3198 104.813 69.3198 104.081C69.3198 103.348 69.4244 102.721 69.7382 102.198C70.0521 101.675 70.4705 101.152 70.9935 100.838C71.5165 100.524 72.1441 100.315 72.7718 100.315C73.3994 100.315 74.027 100.42 74.55 100.733C75.0731 101.047 75.4915 101.466 75.8053 101.989C76.1191 102.512 76.2237 103.139 76.2237 103.871L76.3283 104.395ZM71.5165 101.466C71.0981 101.675 70.7843 101.989 70.5751 102.407C70.3659 102.825 70.1567 103.244 70.1567 103.767H75.7007C75.7007 103.244 75.4915 102.825 75.2823 102.407C75.0731 101.989 74.6547 101.675 74.3408 101.466C74.027 101.256 73.504 101.152 72.981 101.152C72.458 101.152 71.9349 101.256 71.5165 101.466Z" fill="#2C2528"/>
<path d="M93.9019 101.256C94.4249 101.779 94.6341 102.511 94.6341 103.557V107.846H93.9019V103.662C93.9019 102.825 93.6927 102.198 93.2743 101.779C92.8558 101.361 92.3328 101.152 91.6006 101.152C90.7637 101.152 90.1361 101.361 89.6131 101.884C89.0901 102.407 88.8809 103.034 88.8809 103.976V107.846H88.1486V103.662C88.1486 102.825 87.9394 102.198 87.521 101.779C87.1026 101.361 86.5796 101.152 85.8473 101.152C85.0105 101.152 84.3829 101.361 83.8598 101.884C83.3368 102.407 83.1276 103.034 83.1276 103.976V107.846H82.3954V100.524H83.023V102.093C83.2322 101.57 83.6506 101.152 84.0691 100.942C84.5921 100.629 85.1151 100.524 85.7427 100.524C86.3704 100.524 86.998 100.629 87.4164 100.942C87.8348 101.256 88.2532 101.675 88.3578 102.302C88.567 101.779 88.9855 101.361 89.5085 101.047C90.0315 100.733 90.6591 100.524 91.2868 100.524C92.6466 100.524 93.3789 100.733 93.9019 101.256Z" fill="#2C2528"/>
<path d="M101.433 98.1182H103.735V107.846H101.433V98.1182Z" fill="#2C2528"/>
<path d="M116.287 100.734C116.81 101.047 117.333 101.466 117.647 102.093C117.961 102.721 118.17 103.349 118.17 104.081C118.17 104.813 117.961 105.545 117.647 106.068C117.333 106.696 116.915 107.114 116.287 107.428C115.764 107.742 115.032 107.951 114.404 107.951C113.463 107.951 112.731 107.637 112.103 107.01V110.462H109.906V100.211H111.998V101.047C112.521 100.42 113.358 100.106 114.404 100.106C115.137 100.211 115.764 100.42 116.287 100.734ZM115.45 105.545C115.764 105.127 115.973 104.709 115.973 104.081C115.973 103.453 115.764 102.93 115.45 102.616C115.137 102.198 114.614 102.093 114.091 102.093C113.568 102.093 113.045 102.303 112.731 102.616C112.417 102.93 112.208 103.453 112.208 104.081C112.208 104.709 112.417 105.232 112.731 105.545C113.045 105.859 113.568 106.068 114.091 106.068C114.614 106.173 115.032 105.964 115.45 105.545Z" fill="#2C2528"/>
<path d="M124.446 107.742C123.819 107.637 123.4 107.428 122.982 107.114L123.714 105.545C124.028 105.754 124.446 105.964 124.969 106.068C125.492 106.173 125.911 106.278 126.329 106.278C127.271 106.278 127.689 106.068 127.689 105.545C127.689 105.336 127.585 105.127 127.271 105.127C127.062 105.022 126.643 104.918 126.12 104.918C125.492 104.813 124.969 104.708 124.551 104.604C124.133 104.499 123.819 104.29 123.505 103.976C123.191 103.662 123.087 103.244 123.087 102.616C123.087 102.093 123.191 101.675 123.505 101.361C123.819 100.943 124.133 100.733 124.656 100.524C125.179 100.315 125.806 100.21 126.538 100.21C127.062 100.21 127.585 100.315 128.108 100.42C128.631 100.524 129.049 100.733 129.363 100.943L128.631 102.512C128.003 102.093 127.271 101.989 126.434 101.989C126.015 101.989 125.597 102.093 125.388 102.198C125.179 102.303 125.074 102.512 125.074 102.721C125.074 102.93 125.179 103.139 125.492 103.244C125.806 103.349 126.12 103.453 126.643 103.558C127.271 103.662 127.794 103.767 128.108 103.872C128.526 103.976 128.84 104.185 129.154 104.499C129.467 104.813 129.572 105.231 129.572 105.754C129.572 106.173 129.467 106.591 129.154 107.01C128.84 107.324 128.421 107.637 127.898 107.847C127.375 108.056 126.748 108.16 126.015 108.16C125.702 107.951 125.074 107.847 124.446 107.742Z" fill="#2C2528"/>
<path d="M142.961 100.315V107.847H140.869V106.905C140.556 107.219 140.242 107.428 139.823 107.637C139.405 107.847 138.986 107.847 138.568 107.847C137.627 107.847 136.79 107.533 136.267 107.01C135.639 106.487 135.43 105.65 135.43 104.499V100.21H137.627V104.081C137.627 105.336 138.15 105.859 139.196 105.859C139.719 105.859 140.137 105.65 140.451 105.336C140.765 105.022 140.974 104.499 140.974 103.872V100.21H142.961V100.315Z" fill="#2C2528"/>
<path d="M160.953 101.047C161.476 101.57 161.79 102.407 161.79 103.558V107.847H159.594V103.872C159.594 103.244 159.489 102.826 159.175 102.512C158.861 102.198 158.547 102.093 158.129 102.093C157.606 102.093 157.188 102.303 156.874 102.616C156.56 102.93 156.455 103.453 156.455 104.081V107.847H154.259V103.872C154.259 102.721 153.736 102.093 152.794 102.093C152.271 102.093 151.853 102.303 151.644 102.616C151.434 102.93 151.225 103.453 151.225 104.081V107.847H149.028V100.315H151.121V101.152C151.434 100.838 151.748 100.629 152.167 100.42C152.585 100.21 153.003 100.21 153.526 100.21C154.049 100.21 154.572 100.315 154.991 100.524C155.409 100.733 155.723 101.047 156.037 101.466C156.351 101.047 156.769 100.733 157.188 100.524C157.606 100.315 158.129 100.21 158.757 100.21C159.698 100.21 160.43 100.524 160.953 101.047Z" fill="#2C2528"/>
<path d="M98.7137 32.7412C98.7137 32.7412 110.743 17.2597 88.8809 0C88.8809 0 69.7383 21.6531 94.948 34.9379C94.948 34.9379 89.7177 22.0715 91.1822 15.5861C91.1822 15.4815 95.0526 29.3939 98.7137 32.7412Z" fill="#2C2528"/>
<path d="M95.0525 45.7129C95.0525 45.7129 91.7052 26.3611 64.1942 30.7544C64.1942 30.7544 67.1231 59.5207 94.0065 50.0017C94.0065 50.0017 81.0355 45.1899 77.2698 39.6458C77.2698 39.5412 90.0315 46.1313 95.0525 45.7129Z" fill="#2C2528"/>
<path d="M99.4459 46.5495C99.4459 46.5495 96.9354 27.093 124.446 23.2227C124.446 23.2227 130.095 51.5705 101.643 50.3152C101.643 50.3152 112.626 41.8423 114.614 35.4614C114.614 35.4614 104.258 45.5034 99.4459 46.5495Z" fill="#2C2528"/>
<path d="M35.6373 42.3645C35.2188 42.3645 34.8004 42.0507 34.8004 41.5277V10.6694C34.8004 10.2509 35.1142 9.83252 35.6373 9.83252H74.6547C75.0731 9.83252 75.4916 10.1463 75.4916 10.6694C75.4916 11.1924 75.0731 11.5062 74.6547 11.5062H36.3695V41.5277C36.3695 41.9461 36.0557 42.3645 35.6373 42.3645Z" fill="#2C2528"/>
<path d="M157.397 42.364C156.978 42.364 156.56 42.0502 156.56 41.5272V11.5057H108.128C107.71 11.5057 107.291 11.1919 107.291 10.6689C107.291 10.1458 107.605 9.83203 108.128 9.83203H157.397C157.815 9.83203 158.234 10.1458 158.234 10.6689V41.5272C158.234 41.9456 157.815 42.364 157.397 42.364Z" fill="#2C2528"/>
<path d="M157.397 129.081H35.6373C35.2188 129.081 34.8004 128.767 34.8004 128.244V116.947C34.8004 116.529 35.1142 116.11 35.6373 116.11C36.1603 116.11 36.4741 116.424 36.4741 116.947V127.408H156.665V116.947C156.665 116.529 156.978 116.11 157.501 116.11C158.024 116.11 158.338 116.424 158.338 116.947V128.244C158.234 128.663 157.815 129.081 157.397 129.081Z" fill="#2C2528"/>
</svg>
