<svg width="121" height="114" viewBox="0 0 121 114" fill="none" xmlns="http://www.w3.org/2000/svg">
<g opacity="0.25">
<path d="M44.724 42.9401C44.644 42.9401 44.564 42.9401 44.564 42.8601C42.804 40.5401 44.964 35.4201 46.724 33.1801C50.404 28.3801 56.564 26.0601 62.564 23.7401C70.004 20.9401 77.684 17.9801 80.804 10.2201C80.884 10.1401 80.964 10.0601 81.044 10.1401C81.124 10.2201 81.204 10.3001 81.124 10.3801C77.924 18.3001 70.164 21.2601 62.644 24.1401C56.724 26.3801 50.644 28.7001 47.044 33.4201C45.444 35.5001 43.284 40.4601 44.964 42.6201C45.044 42.7001 45.044 42.8601 44.884 42.8601C44.804 42.8601 44.804 42.9401 44.724 42.9401Z" fill="#2C2528"/>
<path d="M56.8839 26.3804C56.8039 26.3804 56.7239 26.3804 56.7239 26.3004C56.6439 26.2204 56.7239 26.0604 56.8039 26.0604C57.1239 25.9004 57.5239 25.6604 57.8439 25.5004C60.4039 24.1404 62.2439 23.1004 63.8439 20.3804C66.0039 16.7804 66.0039 14.0604 65.9239 10.3004V9.6604C65.9239 9.5804 66.0039 9.42041 66.0839 9.42041C66.1639 9.42041 66.2439 9.50041 66.2439 9.58041V10.2204C66.2439 14.0604 66.3239 16.7804 64.0839 20.4604C62.4039 23.3404 60.4839 24.3804 57.9239 25.7404C57.6039 25.9004 57.2839 26.0604 56.8839 26.3004C56.9639 26.3804 56.9639 26.3804 56.8839 26.3804Z" fill="#2C2528"/>
<path d="M48.484 31.6605C48.404 31.6605 48.324 31.6605 48.324 31.5805C48.244 31.5005 48.324 31.3405 48.404 31.3405C49.924 30.3805 51.604 29.4205 53.444 29.1805C55.364 28.8605 57.364 29.1805 59.284 29.4205C59.684 29.5005 60.084 29.5005 60.484 29.5805C61.284 29.6605 62.084 29.8205 62.964 29.9005C66.004 30.3005 69.044 30.7005 72.164 31.0205C72.244 31.0205 72.324 31.1005 72.324 31.2605C72.324 31.3405 72.244 31.4205 72.084 31.4205C69.044 31.1005 65.924 30.7005 62.884 30.3005C62.084 30.2205 61.204 30.0605 60.404 29.9805C60.004 29.9005 59.604 29.9005 59.204 29.8205C57.284 29.5805 55.364 29.2605 53.524 29.5805C51.764 29.9005 50.084 30.7805 48.564 31.7405C48.564 31.6605 48.484 31.6605 48.484 31.6605Z" fill="#2C2528"/>
<path d="M46.0839 34.4605C46.0039 34.4605 45.924 34.3805 45.924 34.3005C45.684 32.2205 46.6439 29.9005 47.7639 27.3405C49.2839 23.7405 50.884 20.0605 48.244 17.4205C48.164 17.3405 48.164 17.1805 48.244 17.1005C48.324 17.0205 48.4839 17.0205 48.5639 17.1005C51.4439 19.9005 49.7639 23.7405 48.1639 27.4205C47.1239 29.9005 46.084 32.1405 46.324 34.1405C46.324 34.3005 46.2439 34.4605 46.0839 34.4605Z" fill="#2C2528"/>
<path d="M44.4039 38.7803C44.4039 38.7803 44.3239 38.7803 44.4039 38.7803C44.2439 38.7803 44.1639 38.6203 44.2439 38.5403C44.4839 37.5003 45.1239 36.7003 46.0839 36.1403C49.2039 34.4603 55.3639 36.3803 58.9639 37.5803C59.8439 37.8203 60.5639 38.0603 61.1239 38.2203C61.2039 38.2203 61.2839 38.3803 61.2839 38.4603C61.2839 38.5403 61.1239 38.6203 61.0439 38.6203C60.4839 38.4603 59.7639 38.2203 58.8839 37.9803C55.2839 36.7803 49.2839 34.8603 46.3239 36.5403C45.5239 37.0203 44.9639 37.6603 44.7239 38.7003C44.5639 38.7003 44.4839 38.7803 44.4039 38.7803Z" fill="#2C2528"/>
<path d="M72.164 19.8204C72.164 19.8204 71.604 16.3804 77.124 12.3804C82.644 8.38041 82.804 4.30041 82.724 1.42041C82.724 1.42041 86.644 22.6204 72.164 19.8204Z" fill="#2C2528"/>
<path d="M63.4441 21.5801C63.4441 21.5801 60.8841 19.1801 62.8041 12.4601C64.7241 5.74013 62.3241 2.38014 60.4041 0.140137C60.4041 0.220137 76.8841 14.8601 63.4441 21.5801Z" fill="#2C2528"/>
<path d="M47.604 28.1402C47.604 28.1402 44.644 25.7402 46.084 18.3002C47.604 10.8602 44.724 7.34018 42.484 5.18018C42.564 5.18018 61.604 19.6602 47.604 28.1402Z" fill="#2C2528"/>
<path d="M66.244 30.4602C66.244 30.4602 67.684 33.5802 74.484 33.9002C81.284 34.1402 83.764 37.4202 85.204 39.9002C85.204 39.8202 76.644 19.9802 66.244 30.4602Z" fill="#2C2528"/>
<path d="M47.0441 35.8199C47.0441 35.8199 48.9641 39.8999 57.8441 40.2999C66.8041 40.6199 70.0041 44.9399 71.9241 48.1399C71.9241 48.1399 60.6441 22.2199 47.0441 35.8199Z" fill="#2C2528"/>
<path d="M0.803955 50.0601H5.76395V67.3401H16.484V71.3401H0.883948V50.0601H0.803955Z" fill="#2C2528"/>
<path d="M35.684 67.4201V71.3401H19.204V50.0601H35.284V53.9801H24.084V58.6201H34.004V62.4601H24.084V67.4201H35.684Z" fill="#2C2528"/>
<path d="M53.684 66.8601H43.764L41.844 71.4201H36.804L46.324 50.1401H51.2039L60.724 71.4201H55.524L53.684 66.8601ZM52.084 63.1001L48.724 54.9401L45.364 63.1001H52.084Z" fill="#2C2528"/>
<path d="M82.244 50.0601L73.044 71.3401H68.164L58.964 50.0601H64.324L70.804 65.2601L77.364 50.0601H82.244Z" fill="#2C2528"/>
<path d="M100.564 67.4201V71.3401H84.084V50.0601H100.164V53.9801H88.964V58.6201H98.884V62.4601H88.964V67.4201H100.564Z" fill="#2C2528"/>
<path d="M106.564 71.1003C104.964 70.6203 103.764 70.0603 102.804 69.3403L104.484 65.6603C105.364 66.3003 106.484 66.8603 107.764 67.2603C109.044 67.6603 110.244 67.9003 111.524 67.9003C112.964 67.9003 113.924 67.6603 114.644 67.2603C115.284 66.8603 115.684 66.3003 115.684 65.5803C115.684 65.1003 115.524 64.6203 115.124 64.3003C114.724 63.9803 114.244 63.6603 113.604 63.5003C112.964 63.2603 112.164 63.1003 111.124 62.8603C109.524 62.4603 108.164 62.0603 107.124 61.7403C106.084 61.3403 105.204 60.7003 104.484 59.9003C103.764 59.1003 103.364 57.9003 103.364 56.4603C103.364 55.2603 103.684 54.1403 104.404 53.1003C105.044 52.0603 106.084 51.2603 107.444 50.7003C108.804 50.1403 110.404 49.8203 112.404 49.8203C113.764 49.8203 115.124 49.9803 116.404 50.3003C117.684 50.6203 118.804 51.1003 119.844 51.7403L118.324 55.5003C116.324 54.3803 114.404 53.8203 112.404 53.8203C111.044 53.8203 110.004 54.0603 109.364 54.4603C108.724 54.9403 108.404 55.5003 108.404 56.2203C108.404 56.9403 108.804 57.5003 109.524 57.8203C110.324 58.1403 111.444 58.5403 113.044 58.8603C114.644 59.2603 116.004 59.6603 117.044 59.9803C118.084 60.3803 118.964 60.9403 119.684 61.8203C120.404 62.6203 120.804 63.7403 120.804 65.1803C120.804 66.3803 120.484 67.5003 119.764 68.5403C119.044 69.5803 118.084 70.3803 116.724 70.9403C115.364 71.5003 113.684 71.8203 111.764 71.8203C109.764 71.7403 108.164 71.5003 106.564 71.1003Z" fill="#2C2528"/>
<path d="M12.084 77.0205H12.644V83.9805H16.964V84.4605H12.164V77.0205H12.084Z" fill="#2C2528"/>
<path d="M22.004 84.2204C21.604 83.9804 21.284 83.6603 21.044 83.1803C20.804 82.7803 20.644 82.3004 20.644 81.7404C20.644 81.1804 20.804 80.7004 21.044 80.3004C21.284 79.9004 21.604 79.5004 22.004 79.2604C22.404 79.0204 22.884 78.8604 23.444 78.8604C24.004 78.8604 24.484 79.0204 24.884 79.2604C25.284 79.5004 25.604 79.8204 25.844 80.3004C26.084 80.7004 26.244 81.1804 26.244 81.7404C26.244 82.3004 26.084 82.7803 25.844 83.1803C25.604 83.5803 25.284 83.9804 24.884 84.2204C24.484 84.4604 24.004 84.6204 23.444 84.6204C22.884 84.6204 22.404 84.4604 22.004 84.2204ZM24.564 83.8204C24.884 83.6604 25.204 83.3404 25.364 83.0204C25.524 82.7004 25.684 82.2204 25.684 81.8204C25.684 81.3404 25.604 80.9404 25.364 80.6204C25.204 80.3004 24.884 79.9804 24.564 79.8204C24.244 79.6604 23.844 79.5004 23.444 79.5004C23.044 79.5004 22.644 79.5804 22.324 79.8204C22.004 79.9804 21.684 80.3004 21.524 80.6204C21.364 80.9404 21.204 81.4204 21.204 81.8204C21.204 82.3004 21.284 82.7004 21.524 83.0204C21.764 83.3404 22.004 83.6604 22.324 83.8204C22.644 83.9804 23.044 84.1404 23.444 84.1404C23.844 84.1404 24.244 83.9804 24.564 83.8204Z" fill="#2C2528"/>
<path d="M32.324 79.2604C32.724 79.0204 33.124 78.9404 33.684 78.9404V79.5004H33.524C32.884 79.5004 32.404 79.6604 32.084 80.0604C31.764 80.4604 31.524 81.0204 31.524 81.6604V84.5404H30.964V78.9404H31.444V80.1404C31.764 79.7404 32.004 79.4204 32.324 79.2604Z" fill="#2C2528"/>
<path d="M42.964 81.9008H38.164C38.164 82.3008 38.324 82.7008 38.484 83.0208C38.644 83.3408 38.964 83.5808 39.284 83.8208C39.604 83.9808 40.004 84.0608 40.484 84.0608C40.884 84.0608 41.204 83.9808 41.524 83.9008C41.844 83.7408 42.084 83.5808 42.324 83.3408L42.644 83.6608C42.404 83.9808 42.084 84.1408 41.764 84.3008C41.364 84.4608 40.964 84.5408 40.564 84.5408C40.004 84.5408 39.524 84.3808 39.044 84.1408C38.644 83.9008 38.244 83.5808 38.004 83.1008C37.764 82.7008 37.604 82.2208 37.604 81.6608C37.604 81.1008 37.684 80.6208 37.924 80.2208C38.164 79.8208 38.484 79.4208 38.884 79.1808C39.284 78.9408 39.764 78.7808 40.244 78.7808C40.724 78.7808 41.204 78.8608 41.604 79.1008C42.004 79.3408 42.324 79.6608 42.564 80.0608C42.804 80.4608 42.884 80.9408 42.884 81.5008L42.964 81.9008ZM39.284 79.6608C38.964 79.8208 38.724 80.0608 38.564 80.3808C38.404 80.7008 38.244 81.0208 38.244 81.4208H42.484C42.484 81.0208 42.324 80.7008 42.164 80.3808C42.004 80.0608 41.684 79.8208 41.444 79.6608C41.204 79.5008 40.804 79.4208 40.404 79.4208C40.004 79.4208 39.604 79.5008 39.284 79.6608Z" fill="#2C2528"/>
<path d="M56.404 79.5004C56.804 79.9004 56.964 80.4604 56.964 81.2604V84.5404H56.404V81.3404C56.404 80.7004 56.244 80.2204 55.924 79.9004C55.604 79.5804 55.204 79.4204 54.644 79.4204C54.004 79.4204 53.524 79.5804 53.124 79.9804C52.724 80.3804 52.564 80.8604 52.564 81.5804V84.5404H52.164V81.3404C52.164 80.7004 52.004 80.2204 51.684 79.9004C51.364 79.5804 50.964 79.4204 50.404 79.4204C49.764 79.4204 49.284 79.5804 48.884 79.9804C48.484 80.3804 48.324 80.8604 48.324 81.5804V84.5404H47.764V78.9404H48.244V80.1404C48.404 79.7404 48.724 79.4204 49.044 79.2604C49.444 79.0204 49.844 78.9404 50.324 78.9404C50.804 78.9404 51.284 79.0204 51.604 79.2604C51.924 79.5004 52.244 79.8204 52.324 80.3004C52.484 79.9004 52.804 79.5804 53.204 79.3404C53.604 79.1004 54.084 78.9404 54.564 78.9404C55.444 78.9404 56.004 79.1004 56.404 79.5004Z" fill="#2C2528"/>
<path d="M62.1639 77.0205H63.924V84.4605H62.1639V77.0205Z" fill="#2C2528"/>
<path d="M73.604 79.1006C74.004 79.3406 74.404 79.6606 74.644 80.1406C74.884 80.6206 75.044 81.1006 75.044 81.6606C75.044 82.2206 74.884 82.7806 74.644 83.1806C74.404 83.6606 74.084 83.9806 73.604 84.2206C73.204 84.4606 72.644 84.6206 72.164 84.6206C71.444 84.6206 70.884 84.3806 70.404 83.9006V86.5406H68.724V78.7006H70.324V79.3406C70.724 78.8606 71.364 78.6206 72.164 78.6206C72.644 78.7006 73.124 78.7806 73.604 79.1006ZM72.884 82.7806C73.124 82.4606 73.284 82.1406 73.284 81.6606C73.284 81.1806 73.124 80.7806 72.884 80.5406C72.644 80.2206 72.244 80.1406 71.844 80.1406C71.444 80.1406 71.044 80.3006 70.804 80.5406C70.564 80.8606 70.404 81.1806 70.404 81.6606C70.404 82.1406 70.564 82.5406 70.804 82.7806C71.044 83.1006 71.444 83.1806 71.844 83.1806C72.244 83.2606 72.644 83.1006 72.884 82.7806Z" fill="#2C2528"/>
<path d="M79.844 84.4607C79.364 84.3807 79.044 84.2207 78.724 83.9807L79.284 82.7807C79.524 82.9407 79.844 83.1007 80.244 83.1807C80.644 83.2607 80.964 83.3407 81.284 83.3407C82.004 83.3407 82.324 83.1807 82.324 82.7807C82.324 82.6207 82.244 82.4607 82.004 82.4607C81.844 82.3807 81.524 82.3007 81.124 82.3007C80.644 82.2207 80.244 82.1407 79.924 82.0607C79.604 81.9807 79.364 81.8207 79.124 81.5807C78.884 81.3407 78.804 81.0207 78.804 80.5407C78.804 80.1407 78.884 79.8207 79.124 79.5807C79.364 79.2607 79.604 79.1007 80.004 78.9407C80.404 78.7807 80.884 78.7007 81.444 78.7007C81.844 78.7007 82.244 78.7807 82.644 78.8607C83.044 78.9407 83.364 79.1007 83.604 79.2607L83.044 80.4607C82.564 80.1407 82.004 80.0607 81.364 80.0607C81.044 80.0607 80.724 80.1407 80.564 80.2207C80.404 80.3007 80.324 80.4607 80.324 80.6207C80.324 80.7807 80.404 80.9407 80.644 81.0207C80.804 81.1007 81.124 81.1807 81.524 81.2607C82.004 81.3407 82.404 81.4207 82.644 81.5007C82.964 81.5807 83.204 81.7407 83.444 81.9807C83.684 82.2207 83.764 82.5407 83.764 82.9407C83.764 83.2607 83.684 83.5807 83.444 83.9007C83.204 84.2207 82.884 84.3807 82.484 84.5407C82.084 84.7007 81.604 84.7807 81.044 84.7807C80.724 84.6207 80.244 84.5407 79.844 84.4607Z" fill="#2C2528"/>
<path d="M93.9241 78.7807V84.5407H92.3241V83.8207C92.0841 84.0607 91.8441 84.2207 91.5241 84.3807C91.2041 84.5407 90.8841 84.5407 90.5641 84.5407C89.8441 84.5407 89.2041 84.3007 88.8041 83.9007C88.3241 83.5007 88.1641 82.8607 88.1641 81.9807V78.7007H89.8441V81.6607C89.8441 82.6207 90.2441 83.0207 91.0441 83.0207C91.4441 83.0207 91.7641 82.8607 92.0041 82.6207C92.2441 82.3807 92.4041 81.9807 92.4041 81.5007V78.7007H93.9241V78.7807Z" fill="#2C2528"/>
<path d="M107.764 79.3407C108.164 79.7407 108.404 80.3807 108.404 81.2607V84.5407H106.724V81.5007C106.724 81.0207 106.644 80.7007 106.404 80.4607C106.244 80.2207 105.924 80.1407 105.604 80.1407C105.204 80.1407 104.884 80.3007 104.644 80.5407C104.404 80.7807 104.324 81.1807 104.324 81.6607V84.5407H102.644V81.5007C102.644 80.6207 102.244 80.1407 101.524 80.1407C101.124 80.1407 100.804 80.3007 100.644 80.5407C100.484 80.7807 100.324 81.1807 100.324 81.6607V84.5407H98.644V78.7807H100.244V79.4207C100.484 79.1807 100.724 79.0207 101.044 78.8607C101.364 78.7007 101.684 78.7007 102.084 78.7007C102.484 78.7007 102.884 78.7807 103.204 78.9407C103.524 79.1007 103.764 79.3407 104.004 79.6607C104.244 79.3407 104.564 79.1007 104.884 78.9407C105.204 78.7807 105.604 78.7007 106.084 78.7007C106.724 78.7007 107.284 78.9407 107.764 79.3407Z" fill="#2C2528"/>
<path d="M21.924 43.3405C21.764 43.3405 21.604 43.2605 21.524 43.1805C21.284 42.9405 21.284 42.5405 21.524 42.3005L40.644 23.1805C40.884 22.9405 41.284 22.9405 41.524 23.1805C41.764 23.4205 41.764 23.8205 41.524 24.0605L22.404 43.1805C22.244 43.2605 22.084 43.3405 21.924 43.3405Z" fill="#2C2528"/>
<path d="M58.324 113.26C58.164 113.26 58.004 113.18 57.924 113.1L36.644 91.8203C36.404 91.5803 36.404 91.1803 36.644 90.9403C36.884 90.7003 37.284 90.7003 37.524 90.9403L58.404 111.82L79.284 90.9403C79.524 90.7003 79.924 90.7003 80.164 90.9403C80.404 91.1803 80.404 91.5803 80.164 91.8203L58.884 113.1C58.644 113.18 58.484 113.26 58.324 113.26Z" fill="#2C2528"/>
<path d="M94.804 43.34C94.644 43.34 94.484 43.26 94.404 43.18L87.764 36.54C87.524 36.3 87.524 35.9 87.764 35.66C88.004 35.42 88.404 35.42 88.644 35.66L95.284 42.3C95.524 42.54 95.524 42.94 95.284 43.18C95.124 43.26 94.964 43.34 94.804 43.34Z" fill="#2C2528"/>
</g>
</svg>
